<?xml version="1.0" encoding="UTF-8" standalone="no"?>
<!-- Created with Inkscape (http://www.inkscape.org/) -->

<svg
   width="167.84004mm"
   height="167.84006mm"
   viewBox="0 0 167.84004 167.84006"
   version="1.1"
   id="svg5"
   inkscape:version="1.1.1 (3bf5ae0d25, 2021-09-20, custom)"
   sodipodi:docname="logo.svg"
   xmlns:inkscape="http://www.inkscape.org/namespaces/inkscape"
   xmlns:sodipodi="http://sodipodi.sourceforge.net/DTD/sodipodi-0.dtd"
   xmlns="http://www.w3.org/2000/svg"
   xmlns:svg="http://www.w3.org/2000/svg">
  <sodipodi:namedview
     id="namedview7"
     pagecolor="#ffffff"
     bordercolor="#111111"
     borderopacity="1"
     inkscape:pageshadow="0"
     inkscape:pageopacity="0"
     inkscape:pagecheckerboard="1"
     inkscape:document-units="mm"
     showgrid="false"
     inkscape:snap-global="true"
     fit-margin-top="0"
     fit-margin-left="0"
     fit-margin-right="0"
     fit-margin-bottom="0"
     inkscape:zoom="0.28929687"
     inkscape:cx="126.16797"
     inkscape:cy="452.82205"
     inkscape:window-width="1920"
     inkscape:window-height="1011"
     inkscape:window-x="0"
     inkscape:window-y="32"
     inkscape:window-maximized="1"
     inkscape:current-layer="layer1" />
  <defs
     id="defs2" />
  <g
     inkscape:label="Calque 1"
     inkscape:groupmode="layer"
     id="layer1"
     transform="translate(-20.718685,-14.40687)">
    <g
       id="g18988"
       transform="matrix(0.74066123,0,0,0.74066123,155.25589,106.94024)">
      <path
         id="rect12108"
         style="fill:#71a7d7;fill-opacity:1;stroke:none;stroke-width:0.947803"
         d="M -258.29492,-472.18945 A 428.23678,428.23678 0 0 0 -686.53125,-43.953125 428.23678,428.23678 0 0 0 -258.29492,384.2832 428.23678,428.23678 0 0 0 169.94141,-43.953125 428.23678,428.23678 0 0 0 -258.29492,-472.18945 Z"
         transform="scale(0.26458333)" />
      <path
         id="path10568"
         style="fill:#d3caba;fill-opacity:1;stroke-width:4.74183"
         d="m -258.29492,-472.18945 a 428.23678,428.23678 0 0 0 -6.76367,0.2539 c -1.28324,1.46724 -1.61094,4.18363 -0.33399,8.61719 l 6.23242,6.07617 c 26.4428,4.08159 13.72616,-10.63058 2.83985,-14.92187 a 428.23678,428.23678 0 0 0 -1.97461,-0.0254 z m -103.46485,12.92578 a 428.23678,428.23678 0 0 0 -37.78711,11.35742 c 7.01535,2.3415 15.96315,-0.20599 23.04102,0.28711 9.50859,-3.95553 13.81494,-8.00937 14.74609,-11.64453 z m 48.44532,0.84375 c -2.49624,0.0177 -2.74794,2.6177 3.52343,10.33594 18.32528,2.08022 1.96829,-10.37486 -3.52343,-10.33594 z m 172.54492,7.1875 c -18.14182,0.32225 -34.30778,8.37277 -24.89844,31.09961 14.62946,0.59032 29.02283,-2.59755 43.41797,-4.66797 38.728778,-10.8644 7.99544,-26.90263 -18.51953,-26.43164 z m -132.49609,16.20117 c -8.90473,-0.25644 27.0624,24.23249 20.8164,37.68359 l -1,8.44532 c 21.99486,13.09835 31.19628,-47.43321 -5.41211,-41.55664 -7.90441,-3.1343 -12.34936,-4.51309 -14.40429,-4.57227 z m 54.7246,0.36133 c -1.57399,-0.16515 -2.63789,2.10174 -2.33984,8.69336 20.09646,23.51456 7.96124,-8.10354 2.33984,-8.69336 z m 116.83594,26.60937 c -6.11022,0.22408 -6.37913,4.40748 10.039064,15.32813 4.415743,2.51954 8.643594,5.41028 13.369141,7.35156 21.212115,-9.10377 -11.743231,-23.10747 -23.408205,-22.67969 z m -93.73242,5.83203 c -43.67302,2.57519 -72.30856,67.27615 -18.33008,80.57227 27.38699,28.42345 23.2072,9.56332 13.7793,-12.1582 -30.39455,-29.41105 39.00103,-48.43253 4.55078,-68.41407 z m -161.06445,10.21485 c -1.90631,-0.0575 -3.71305,2.31002 -3.74805,9.54687 12.62102,2.44117 7.94193,-9.42044 3.74805,-9.54687 z m 344.300778,23.18555 c -4.634255,0.44519 -7.807111,4.67245 -1.548828,15.63085 21.0556266,-6.60989 9.2725862,-16.37285 1.548828,-15.63085 z m -177.792968,2.4082 c -3.93198,-0.63908 -6.31771,4.95901 -2.38672,23.48633 27.17203,9.50926 11.03708,-22.08037 2.38672,-23.48633 z m 94.060546,3.79687 c -18.044126,0.11314 -37.144426,9.01421 -30.638676,31.21485 12.06311,4.81001 25.80415,6.19953 38.341801,2.33008 36.951417,-19.3095 15.496471,-33.69039 -7.703125,-33.54493 z m 51.720703,2.82617 c -1.272948,-0.0274 -3.217236,1.91313 -5.96289,7.31836 6.50741,17.96936 10.509136,-7.22064 5.96289,-7.31836 z M -331.75,-356.71484 c -16.13671,0.37869 -28.62384,6.26466 -15.97461,22.22851 14.5412,8.53823 28.3008,-7.4083 43.0332,-2.86328 27.90548,-8.7081 -3.47417,-19.91871 -27.05859,-19.36523 z m 348.369141,17.08203 c -15.0606901,-0.0475 -33.463741,10.46617 -9.8925785,22.71875 1.6870367,8.53978 13.4365795,4.07536 17.6464845,0.70703 13.653118,-16.9627 3.959963,-23.38885 -7.753906,-23.42578 z m 33.486328,15.96093 c -2.028241,0.0284 -5.356759,1.31855 -10.419922,4.66797 l -1.003906,1.41407 c 4.595539,17.38728 20.21287,-6.20511 11.423828,-6.08204 z m -174.021489,11.81836 c -21.36168,-1.08062 -42.56838,25.93389 -15.16796,39.58985 l 2.76367,3.51953 4.57031,3.0625 c 33.561547,16.29711 -10.98662,-16.0595 14.92578,-12.2832 19.045804,-14.39959 34.602897,0.12011 61.578126,3.57812 32.864752,-16.3708 -35.594922,-25.19414 -49.050786,-25.48437 -5.36035,-8.1387 -12.49857,-11.62222 -19.61914,-11.98243 z m -501.33789,47.57032 a 428.23678,428.23678 0 0 0 -11.98437,21.49804 c 0.80294,-0.33586 1.56873,-0.77028 2.20703,-1.43164 11.91921,-8.43092 13.05648,-15.55432 9.77734,-20.0664 z m 581.041019,4.0664 c -1.272948,-0.0274 -3.217235,1.91117 -5.96289,7.31641 6.507407,17.96936 10.509136,-7.21869 5.96289,-7.31641 z m 105.779297,91.74024 c -1.739009,-0.16269 -3.574621,1.95186 -4.847656,8.36914 14.403022,13.11294 10.064683,-7.88107 4.847656,-8.36914 z m 18.636719,12.76562 c -1.879687,0.31938 -3.557643,3.38931 -4.324219,11.19532 20.336861,21.58999 11.037385,-12.33597 4.324219,-11.19532 z m -7.445313,35.3086 c -1.707634,0.11775 -4.338707,1.92244 -8.09375,6.65429 8.495268,14.009064 14.192445,-7.07483 8.09375,-6.65429 z m -228.009762,6.14453 c -2.16994,-0.0849 -5.09963,1.48434 -8.72657,5.98437 14.53023,15.715063 16.47634,-5.68109 8.72657,-5.98437 z m 43.13867,8.52539 c -2.9676,0.13736 -6.26917,0.7229 -9.9043,1.85351 -3.1596,23.955008 -67.9882,22.922011 -45.79492,44.361332 16.46,1.912909 32.57299,-3.390562 47.87305,-8.775391 33.997144,1.932733 36.512944,-38.767291 7.82617,-37.439451 z m 268.95117,13.031248 c -29.37602,0.599853 -72.963592,38.080521 -34.79101,61.482422 14.71284,14.839305 35.76031,4.88657 47.8496,-11.529297 a 428.23678,428.23678 0 0 0 0.0449,-1.205078 428.23678,428.23678 0 0 0 -2.61524,-47.007813 c -3.11959,-1.270592 -6.68321,-1.817933 -10.48828,-1.740234 z M -348.06836,16.984375 c -6.34535,0.339766 -8.11184,6.614141 0.008,23.474609 -5.88411,44.625706 33.60774,54.698961 68.91993,51.677735 10.9558,5.922017 31.22349,11.696031 35.39062,-5.541016 34.41862,-33.200243 -31.18933,-46.811795 -54.8418,-39.042969 -8.56061,-10.237882 -37.3627,-31.217004 -49.47656,-30.568359 z m 24.625,35.271484 c 5.91521,0.271653 11.98023,4.427057 13.18945,15.160157 2.48855,7.474507 -3.99543,15.61518 -10.61328,7.007812 -24.61704,-9.04993 -13.86884,-22.686578 -2.57617,-22.167969 z m 106.91992,28.964844 c -10.65522,0.433528 -19.06026,8.916443 -6.00781,26.693357 4.81019,10.37983 19.25998,15.84583 22.94727,1.04102 10.10174,-18.378354 -4.86353,-28.225708 -16.93946,-27.734377 z m 29.53516,7.318359 c -2.18457,0.360733 -3.86995,4.180726 -3.69727,14.273438 21.28272,14.70385 10.25098,-15.355634 3.69727,-14.273438 z m -174.04883,12.212888 c -1.74247,-0.21142 -5.31182,2.1498 -11.58203,9.09766 0.71168,25.23922 17.80513,-8.34256 11.58203,-9.09766 z m 119.91797,27.25977 c -3.82465,0.23913 -4.69689,4.55613 2.45703,16.63281 36.36983,8.77901 7.31709,-17.24394 -2.45703,-16.63281 z M -83.390625,130 c -34.005045,12.67273 -69.926675,22.15646 -100.212895,40.64844 -20.58535,41.11939 56.67108,-1.1714 35.63477,34.41211 -11.29279,38.56816 -89.77803,61.08531 -42.29492,103.72265 22.9084,18.36445 70.5743,-0.39022 82.74609,-24.58789 -28.03824,-23.51683 -6.3469,-66.46517 24.36133,-82.91015 29.095306,15.13017 33.455464,-41.14654 4.441406,-31.35157 -44.255736,11.54647 17.876322,-8.17611 12.738282,-25.44726 C -72.975465,150.00607 -110.445,147.10261 -83.390625,130 Z m -355.480465,26.39062 c -1.03888,-0.067 -1.99737,1.40868 -2.50586,5.61915 10.96314,14.55211 6.21613,-5.37998 2.50586,-5.61915 z m 181.99218,4.5625 c -5.96994,0.11632 -7.18202,4.37121 6.36914,16.03516 3.39631,1.95343 6.701,4.0699 10.21875,5.80469 23.54624,-7.1996 -5.19072,-22.06189 -16.58789,-21.83985 z m 188.257816,69.59961 c -1.266391,-0.18345 -3.002175,0.40627 -5.263672,2.30469 7.435747,13.79887 10.751367,-1.50972 5.263672,-2.30469 z m -86.982426,20.62696 c 12.2666,0.33808 16.27364,39.49562 -11.73242,38.85937 -19.21329,13.02374 -1.55084,-23.53319 0.008,-28.28711 4.20817,-7.71789 8.28996,-10.66693 11.7246,-10.57226 z m -225.5957,69.24023 c -4.11627,-0.29751 -8.52505,0.92426 -12.07617,5.11524 -4.86554,10.4116 8.52785,-0.52295 10.23242,-0.67969 23.91441,11.01 14.19255,-3.54302 1.84375,-4.43555 z m 43.69336,45.64649 c -2.66428,-0.0208 -6.08051,0.33516 -10.21875,1.3164 19.18457,5.94175 21.76398,-1.22638 10.21875,-1.3164 z"
         transform="scale(0.26458333)" />
      <path
         id="path10566"
         style="fill:#e3accf;stroke-width:4.74183"
         d="m -230.55078,-471.25391 c -0.80893,0.0589 -1.61894,0.0971 -2.42774,0.15821 -23.42211,4.86719 -11.02544,20.22546 3.6875,8.59961 -7.71231,16.06983 3.76938,65.71623 -22.44726,78.43164 11.6024,-43.77283 -31.14096,-21.09022 -50.2793,-8.87891 -33.04179,8.48455 4.65425,-3.42528 -13.0664,-15.37891 -18.12334,-44.64982 -62.62373,-0.41201 -28.71875,21.51368 -0.94411,28.14492 28.36822,47.39428 50.26953,19.55273 28.31399,-24.05518 7.73661,10.00734 4.75976,20.71484 44.80739,8.37989 57.35323,-66.93296 102.32422,-49.52929 -14.48299,22.63281 -30.95471,69.13483 9.13281,88.125 -7.3095,-3.84522 21.50523,-30.33777 28.61329,1.32617 13.50785,-22.74421 47.24956,21.63632 36.89843,-4.3125 -35.75853,-30.16101 6.43806,-66.20635 39.910159,-48.55078 -3.546883,22.93437 -5.640215,48.59151 30.330078,34.40039 36.3549335,24.99084 40.77856358,-32.95387 72.664062,-34.49414 a 428.23678,428.23678 0 0 0 -20.085937,-17.28906 c -15.6603933,5.13288 -37.925868,-10.25733 -43.855469,-25.83985 -0.09336,-2.00207 -0.128631,-3.76982 -0.115234,-5.36133 a 428.23678,428.23678 0 0 0 -77.566409,-37.78515 c 10.42108,9.63397 9.48594,25.25629 -17.26562,21.91406 -1.92399,0.1389 -3.84751,0.27693 -5.77149,0.41602 -38.91796,24.66402 -40.04846,-37.47958 -2.66406,-28.48438 1.70409,-0.4522 3.37749,-0.72424 5.01563,-0.86133 a 428.23678,428.23678 0 0 0 -99.3418,-18.38672 z m -73.60742,20.30664 c -2.93192,0.0214 -6.33103,1.4099 -9.6875,5.19727 24.67076,12.09765 20.15863,-5.27377 9.6875,-5.19727 z m 86.13086,14.89063 c 2.8838,-0.0983 7.04463,3.81002 11.37109,15.76953 -17.876,4.05627 -17.71547,-15.55327 -11.37109,-15.76953 z m 121.628902,27.57226 c 9.562555,0.38658 24.456095,6.37097 27.25586,17.83008 0.05768,15.37337 -16.836322,0.12606 -22.523438,-2.07812 -18.526264,-10.92839 -14.294974,-16.13853 -4.732422,-15.75196 z m -267.328122,25.83594 c -2.92425,0.0643 -7.09067,2.22316 -12.58203,8.04492 17.61159,18.21458 23.02577,-8.27462 12.58203,-8.04492 z m 353.082029,14.51563 c 1.9362878,0.12228 4.4987052,0.90538 7.8144529,2.61523 -4.2383741,28.0099 -21.3684689,-3.47124 -7.8144529,-2.61523 z m -175.585939,3.34961 c 2.32995,-0.1632 5.15879,3.65264 8.02539,14.67578 l -3.02734,7.0293 c -14.48212,15.08178 -11.9879,-21.21549 -4.99805,-21.70508 z m 139.578126,4.98632 c 1.272951,-0.0274 3.21528,1.91313 5.960938,7.31836 -6.50742,17.96936 -10.507189,-7.22064 -5.960938,-7.31836 z m -243.767576,24.35743 c -2.04338,-0.22586 -3.78515,2.08377 -3.70899,9.44531 16.12515,8.27182 8.93095,-8.86813 3.70899,-9.44531 z m 334.464842,21.46484 c -7.946903,-0.29068 -15.988042,0.97515 -22.683594,3.39453 5.235859,1.2711 9.774854,31.72417 21.816406,38.21485 18.003109,16.06911 36.868413,1.93819 54.65625,-9.37891 a 428.23678,428.23678 0 0 0 -9.935546,-14.21484 c -1.010572,4.47666 -3.985167,9.13273 -10.044922,14.07617 3.169031,-22.14946 -14.928847,-31.40121 -33.808594,-32.0918 z m -22.683594,3.39453 c -0.530912,-0.12889 -1.067269,0.0358 -1.621094,0.5625 0.51633,-0.20832 1.086252,-0.36924 1.621094,-0.5625 z m -109.33789,7.01172 c -1.038877,-0.067 -1.995432,1.41063 -2.503907,5.62109 10.963205,14.55212 6.214179,-5.38192 2.503907,-5.62109 z m 38.703124,10.66602 c -1.793619,-0.0745 -4.078195,0.26448 -6.828124,1.29882 13.120773,7.10844 14.600477,-0.97614 6.828124,-1.29882 z m 38.154297,0.71875 c -6.21815,0.0144 -10.450827,3.60497 -7.808593,13.67382 4.023394,3.19027 7.423169,7.06719 12.771484,7.84961 39.78504,1.75944 10.9279391,-21.56019 -4.962891,-21.52343 z m -84.830078,6.71484 c -2.246855,-0.14826 -5.194471,0.76438 -8.927731,3.12305 -8.85185,5.31312 -19.98975,-0.36592 -16.42578,21.90039 l -2.39844,1.94531 c 24.810526,27.09089 43.479935,-25.93092 27.751951,-26.96875 z m 89.0214846,25.31445 c -1.5212793,-0.0848 -3.9918036,1.19081 -7.6835936,4.88282 6.437443,13.07687 13.1167342,-4.58002 7.6835936,-4.88282 z m 122.3242144,7.10157 c -19.381067,24.67099 -48.64206,56.32183 -48.925777,88.36718 24.697032,10.70314 37.541367,29.77597 20.474609,54.17969 17.550168,-23.80071 53.354808,10.906171 24.101568,31.500001 3.17139,7.745453 10.34515,-8.34001 16.28906,-2.423829 19.20308,0.585652 31.41896,-6.059012 39.14648,-16.765624 A 428.23678,428.23678 0 0 0 115.39648,-253.05273 Z m -750.33984,6.39257 c -0.0842,-0.006 -0.16599,0.0115 -0.25,0.008 a 428.23678,428.23678 0 0 0 -10.16992,19.73632 c 9.6491,6.12291 24.58922,11.74203 32.2832,14.32227 16.49799,17.59569 -5.04006,-32.8399 -21.86328,-34.06641 z m 225.82617,18.69532 c -1.46647,-0.0642 -3.52165,1.48475 -6.17969,5.88672 9.14466,15.14389 11.41711,-5.65728 6.17969,-5.88672 z m -237.57812,25.41992 c -1.49735,0.13409 -3.40443,1.30889 -5.69336,4.17578 10.99207,14.22829 12.18186,-4.75686 5.69336,-4.17578 z m 114.41211,12.07422 c -1.11483,0.11849 -3.10329,1.83578 -6.30078,6.32812 3.11191,13.21858 10.2823,-6.7513 6.30078,-6.32812 z m 431.25195,71.27929 c -20.55402,0.58149 -43.15265,29.02277 -50.39258,3.25586 -13.03672,26.454092 15.69319,39.271861 33.64649,11.41993 50.573159,-8.85022 15.58617,47.72169 -15.38086,40.51562 21.25226,7.991524 70.407694,-14.764374 51.355466,-43.44727 -5.752261,-9.03733 -12.377175,-11.93796 -19.228516,-11.74414 z m -316.08789,19.882816 c -2.22373,0.140487 -4.83591,1.61428 -7.66016,5.259766 19.61114,18.575218 17.29634,-5.868541 7.66016,-5.259766 z m 68.4375,110.753906 c -4.76154,-0.19695 29.98188,16.41488 38.53516,29.246094 -2.94933,3.911498 1.87001,8.173829 5.60156,7.070313 51.2113,-3.825014 -5.59838,-23.935808 -23.77344,-29.753907 -12.7991,-4.563444 -18.7761,-6.496849 -20.36328,-6.5625 z m -10.59766,10.189454 c -4.94795,0.146496 -7.37707,7.184519 1.83399,20.880859 3.16336,0.598484 8.82077,3.343861 11.4414,-0.40625 -0.86108,-13.874484 -8.32744,-20.621106 -13.27539,-20.474609 z m 92.96094,23.02539 c -3.48708,-0.0485 -2.68754,2.046274 9.17383,8.320313 l 1.62109,0.58789 2.3125,0.839844 c 22.9821,0.836272 -5.43583,-9.641338 -13.10742,-9.748047 z m -61.44336,9.216797 c -9.17629,-0.651668 -14.79566,3.95237 1.375,15.492188 l 6.08789,5.291015 6.81836,4.220703 c 15.19463,-14.640881 -2.48316,-24.166047 -14.28125,-25.003906 z m -37.0957,2.626953 c -20.43779,0.540049 8.96575,13.809281 22.67578,24.470703 25.49848,26.319641 -0.90316,-21.953819 -10.67383,-23.878906 -5.14506,-0.487162 -9.08227,-0.668947 -12.00195,-0.591797 z m 136.06445,9.404297 c -6.83462,0.311201 -15.84581,7.278742 -16.88281,22.214844 -6.69217,21.972203 11.85409,8.073009 16.94922,0.466797 12.62862,-14.837083 7.67949,-23.034335 -0.0664,-22.681641 z m -67.00195,21.166016 c -6.54478,-0.251567 -10.64282,2.22171 -6.94141,10.013672 l 7.86133,1.289062 7.93359,0.708985 c 40.5859,7.068272 7.87202,-11.368826 -8.85351,-12.011719 z m -66.44727,6.701172 c -7.83153,0.02149 -15.3511,3.631466 -17.82617,13.703129 l -0.29492,0.21484 -1.99219,1.43945 c -31.78454,38.53317 28.92686,-28.854684 25.91211,6.06836 30.16672,-4.14467 11.43054,-21.473059 -5.79883,-21.425779 z m 297.250002,6.439449 c -2.92478,0.08 -4.533125,2.89645 -1.117187,11.08789 20.351791,1.80181 7.551705,-11.26398 1.117187,-11.08789 z m -155.367192,30.75977 c -1.26639,-0.18345 -3.00219,0.40625 -5.26367,2.30469 7.43587,13.79888 10.75137,-1.50975 5.26367,-2.30469 z m -162.35546,24.55469 c -1.37305,-0.3138 -4.13205,1.87588 -8.87305,8.85156 4.64749,15.5687 12.9922,-7.91016 8.87305,-8.85156 z m -36.96094,2.23828 c -7.78974,0.3698 -21.62444,3.72881 -28.8125,6.0332 1.32756,9.97989 14.76992,8.35395 21.34766,5.86719 16.99757,-9.6498 15.25458,-12.27019 7.46484,-11.90039 z m 351.912108,34.33984 c -2.498856,-0.2724 -6.235575,2.31644 -10.863281,10.61328 15.553143,9.46307 17.249246,-9.91714 10.863281,-10.61328 z m -543.492188,5.8711 c -0.10379,0.005 -0.21578,0.0346 -0.32031,0.041 a 428.23678,428.23678 0 0 0 6.91015,9.36328 c 6.79916,-5.3196 1.19358,-9.75499 -6.58984,-9.40429 z m 229.65039,129.74609 c -17.02841,0.71393 16.87125,24.88495 17.03711,39.91211 60.50045,8.52032 29.59918,-27.35182 -1.80078,-37.6875 -7.18401,-1.68375 -12.08292,-2.35682 -15.23633,-2.22461 z m 276.66992,25.90234 c -5.52714,-0.19009 -9.99381,1.68314 -12.31836,6.44727 a 428.23678,428.23678 0 0 0 16.60547,-5.91406 c -1.47416,-0.27809 -2.91978,-0.48618 -4.28711,-0.53321 z m -122.28906,12.24024 c -7.26703,0.48198 -16.86275,6.25401 -15.25,17.82422 a 428.23678,428.23678 0 0 0 16.52734,-0.64453 c -0.83969,-0.41158 -1.53164,-0.79391 -2.49218,-1.22852 14.08396,-10.94221 8.98033,-16.46622 1.21484,-15.95117 z"
         transform="scale(0.26458333)" />
      <path
         id="path10564"
         style="fill:#9ad0d4;stroke-width:4.74183"
         d="m -271.57617,-469.14844 c -16.42202,0.62744 -26.90358,27.76798 -34.01758,47.51953 -29.42301,10.39801 9.99125,15.94052 -8.93945,27.38282 4.13376,10.18174 62.75365,-8.12344 43.42773,-36.18555 6.21263,2.87971 18.04061,0.95679 25.87109,-3.45898 -4.94098,-1.262 -14.64263,-13.98818 1.13672,-7.7168 1.09579,3.12401 1.37515,5.12382 1.15235,6.33203 7.25725,-5.15521 8.91435,-12.82541 -6.47071,-20.39844 -8.39894,-9.90438 -15.73415,-13.72013 -22.16015,-13.47461 z m 28.63086,33.87305 c -0.69923,0.4967 -1.49565,0.93734 -2.28907,1.38477 1.15352,0.29462 2.04088,-0.0389 2.28907,-1.38477 z m -83.39844,-31.33203 a 428.23678,428.23678 0 0 0 -6.61328,1.25195 c 2.82834,0.64956 5.05122,-0.017 6.61328,-1.25195 z m 19.37695,1.36523 c -7.51498,-0.25185 -18.83912,4.22086 -14.51172,17.72852 4.97656,2.49267 4.38079,-5.06857 6.16797,-7.10547 19.56393,-5.39416 15.85874,-10.37119 8.34375,-10.62305 z m -44.1289,3.31836 a 428.23678,428.23678 0 0 0 -10.15039,2.52344 c -9.64194,8.47491 -24.14014,19.93015 -36.86524,10.99219 a 428.23678,428.23678 0 0 0 -25.02929,9.48242 c 0.2873,0.8663 0.54684,1.92826 0.73242,3.46484 -1.80999,2.40251 -3.17816,3.83715 -4.20703,4.60352 21.18498,-2.66143 50.29365,-10.0911 71.79492,-18.82031 1.95752,-5.66838 3.11113,-9.51891 3.72461,-12.2461 z m -75.51953,31.06641 c -0.75687,0.0951 -1.4733,0.16934 -2.20899,0.25195 0.37196,0.55098 1.05284,0.60921 2.20899,-0.25195 z m -2.20899,0.25195 c -0.67595,-1.00129 -0.25674,-3.6827 0.66211,-6.12891 a 428.23678,428.23678 0 0 0 -5.78516,2.52344 l 1.02735,4.06836 c 1.28409,-0.10868 2.73181,-0.30974 4.0957,-0.46289 z m 154.3457,-24.9668 c 1.46648,-0.0642 3.52167,1.48477 6.17969,5.88672 -9.14472,15.1438 -11.4171,-5.65729 -6.17969,-5.88672 z m -14.68359,17.56055 c 1.97499,0.25127 5.89019,5.02891 12.56445,18.10352 -6.94624,21.12208 -18.48943,-18.85733 -12.56445,-18.10352 z m -196.63281,33.66406 c -2.55442,0.0703 -6.98974,2.9021 -13.82227,10.83204 12.22385,13.59924 21.48551,-11.04286 13.82227,-10.83204 z m 125.85937,7.85157 c -4.77215,0.61921 -15.52213,6.58315 -23.875,16.68164 -38.19345,27.93975 6.64436,31.80674 28.43555,17.95703 -31.82076,39.55393 36.92199,39.41024 54.18164,60.44531 9.82902,16.82332 43.01539,10.479 17.10742,-7.02148 4.865,-48.29373 -100.54604,-5.01278 -58.45703,-54.04688 29.91511,-45.52955 -58.45442,16.42942 -29.38476,-18.63281 15.55919,-11.27605 16.76434,-16.00203 11.99218,-15.38281 z m -82.25195,2.125 c -1.11483,0.1185 -3.10317,1.83566 -6.30078,6.32812 3.11161,13.21884 10.28233,-6.75134 6.30078,-6.32812 z m 157.89844,20.39453 c -7.19968,-0.0123 -16.65297,4.4368 -18.82227,15.92773 3.84385,4.19752 10.70997,3.23957 15.14844,0.76758 18.46217,-9.28824 12.93055,-16.67954 3.67383,-16.69531 z m -223.23438,7.41015 c -7.32861,-0.39704 -17.82588,4.6603 -13.49609,18.2168 l 7.97461,-3.70508 c 17.00908,-8.26226 12.85009,-14.11468 5.52148,-14.51172 z m 76.82813,3.91407 c -3.1534,0.22817 -7.13526,2.09425 -11.86719,6.61718 23.65519,22.18013 25.5319,-7.60592 11.86719,-6.61718 z m 458.302732,0.94726 c -10.106696,-0.0597 -14.455432,6.54032 -3.296875,23.19922 -4.945512,40.643 29.874622,0.43857 46.630859,29.61133 1.620189,4.09125 6.836721,5.36443 11.044922,5.00391 a 428.23678,428.23678 0 0 0 -53.164062,-57.74024 c -0.402114,-0.0215 -0.828973,-0.0719 -1.214844,-0.0742 z m -277.707032,6.56446 c -36.20581,9.51812 18.49798,49.28068 5.50977,71.41796 12.57365,11.7127 70.31471,5.93121 71.79687,-16.86914 -15.34488,-7.9429 -63.89056,-25.69354 -77.30664,-54.54882 z m -31.29101,15.89062 c -6.16584,-0.11436 -10.02766,5.93379 1.23632,17.33203 l 7.83789,2.54102 3.51172,-0.23243 c 2.04982,-13.24956 -6.4201,-19.52626 -12.58593,-19.64062 z m 181.980464,8.76758 c -31.319994,1.08718 0.190432,36.48548 25.52539,34.90625 30.739847,23.66815 -0.957001,-36.02591 -13.710937,-34.0625 -4.661151,-0.70081 -8.574454,-0.95622 -11.814453,-0.84375 z m 95.5761716,6.93945 c -0.9815229,0.19567 -0.9701067,2.0153 1.0761719,6.62891 18.6023505,12.67653 2.42926714,-7.32772 -1.0761719,-6.62891 z m -544.6210956,2.18359 c -9.71796,0.029 2.59991,14.54654 21.72656,19.94336 34.04773,10.32908 10.65495,-9.56187 -4.0996,-14.26953 -8.69979,-4.08432 -14.38764,-5.68348 -17.62696,-5.67383 z m -34.24414,7.08399 c -4.21862,-0.1511 -4.95645,3.82276 4.9961,15.94922 l 7.0371,1.96875 c 16.75761,-2.31059 -3.97946,-17.62951 -12.0332,-17.91797 z m 255.60156,15.0625 c -3.12458,0.0465 -2.29834,2.77992 7.82422,10.60156 l 1.92578,0.70703 2.3086,0.84961 c 29.7038,5.14685 -4.07355,-12.27715 -12.0586,-12.1582 z m 295.277348,4.26758 c -1.37305,-0.31381 -4.130098,1.87785 -8.871094,8.85351 4.647482,15.56873 12.990242,-7.91209 8.871094,-8.85351 z m -316.722658,5.83398 c -4.55892,0.035 -4.54845,3.90893 8.66406,14.79102 l 7.30079,4.91406 c 18.08978,-5.84958 -7.26145,-19.77181 -15.96485,-19.70508 z m -243.91797,9.08985 c -32.30437,0.52449 28.62489,21.89652 6.45899,35.18359 30.44685,10.39028 20.76802,-29.10738 1.29687,-35.00195 -3.03461,-0.15892 -5.60223,-0.21661 -7.75586,-0.18164 z m 68.55078,1.80273 c -5.5183,-0.1916 -8.4507,2.27304 -1.6914,10.18359 38.48805,3.52171 13.83168,-9.76207 1.6914,-10.18359 z m 376.58985,1.02148 c -5.65093,-0.26829 -6.49967,1.83275 7.42383,11.1875 6.45831,14.2228 17.57932,0.14559 17.00195,-8.78906 -1.95606,2.20789 -17.1603,-2.05349 -24.42578,-2.39844 z m 76.861326,1.83985 c -7.066525,-0.0656 -9.838601,4.73635 3.460937,17.02344 l 6.078125,6.45117 7.064453,5.2832 c 18.881675,-15.01947 -4.825975,-28.64848 -16.603515,-28.75781 z m -550.726566,4.59765 a 428.23678,428.23678 0 0 0 -4.65625,7.41016 c 0.25295,2.41747 0.27831,5.41175 -0.0332,9.26367 l -0.76367,8.92383 0.58789,2.88477 c 10.39641,-12.51292 9.53156,-21.01706 4.86523,-28.48243 z m 594.357425,12.45313 c -2.873338,0.0498 -7.337095,1.9341 -13.863281,6.83008 8.898507,27.1798 26.314413,-7.04586 13.863281,-6.83008 z m -177.771485,1.64453 c -2.93879,-0.10181 -6.83264,1.50222 -11.53906,6.13281 20.34951,16.34637 22.03475,-5.76918 11.53906,-6.13281 z m -348.00781,13.54492 c -1.10251,-0.055 -2.71135,1.07324 -4.94336,4.16211 4.96943,18.53681 9.72089,-3.92385 4.94336,-4.16211 z m 291.58398,6.66602 c -8.66461,-0.0132 -21.20013,6.39843 -24.36133,18.32422 7.25913,5.03507 17.69807,7.28891 25.4961,1.90429 12.32338,-13.77573 7.52985,-20.21529 -1.13477,-20.22851 z m 56.07617,2.98437 c -1.59455,0.43976 -3.38045,4.88969 -5.17968,15.65625 -23.17776,-16.69787 -4.13191,8.54701 0.67578,17.07032 14.73153,38.78138 11.41363,-34.63216 4.5039,-32.72657 z m -391.02929,6.77735 c -33.29265,22.72426 33.67081,22.63712 51.20117,26.3457 8.2769,1.92121 19.26328,9.25021 27.55273,3.62891 -19.70815,-15.27837 -50.05455,-27.93014 -78.7539,-29.97461 z m -28.38867,18.74609 c -9.67484,0.11236 -21.68648,6.16924 -12.25,19.5625 3.86248,1.44307 7.40705,-1.97588 10.48242,-3.46289 18.78049,-10.38108 11.44241,-16.21197 1.76758,-16.09961 z m 346.42578,0.89063 c -5.98042,-0.34769 -13.58934,2.13237 -17.80078,9.86914 -2.64277,8.49161 6.23624,10.63154 10.83789,4.18945 22.37076,-5.04465 16.93025,-13.47912 6.96289,-14.05859 z m -376.22657,0.31445 a 428.23678,428.23678 0 0 0 -2.77734,6.375 c 7.21916,2.49983 6.16941,-1.76462 2.77734,-6.375 z m 689.533208,33.10156 c -12.096013,0.28426 9.524254,30.66424 20.386718,41.4043 0.222444,8.0882 7.595521,10.13171 14.210938,12.32617 36.902556,-1.87337 -6.883082,-49.75623 -20.289063,-48.50781 -6.929087,-3.75092 -11.517206,-5.28826 -14.308593,-5.22266 z m -663.912108,2.83984 c -1.03888,-0.067 -1.99541,1.41064 -2.50391,5.6211 10.96314,14.55209 6.21418,-5.38193 2.50391,-5.6211 z m 247.8789,51.89454 c -1.46647,-0.0643 -3.52165,1.48475 -6.17968,5.88672 9.14465,15.14388 11.4171,-5.65728 6.17968,-5.88672 z m 224.50782,35.18359 c -2.10352,-0.109195 -4.73309,0.656665 -7.82032,2.886719 16.17554,14.500258 16.93558,-2.413542 7.82032,-2.886719 z m -423.85157,14.28125 c -2.39666,-0.343937 -6.17996,2.19613 -11.69531,9.90625 11.12327,29.33643 20.25485,-8.677904 11.69531,-9.90625 z m 86.88477,7.207031 c -0.95635,-0.03572 -1.38704,1.497098 -0.60742,5.800781 14.16348,14.47666 4.02296,-5.6732 0.60742,-5.800781 z m 411.585938,0.201172 c -0.97996,-0.06886 -2.00571,-0.0659 -3.076172,0.01367 19.623057,19.204071 -23.619096,19.430247 -10.337891,39.392578 v 0.002 c 31.081654,33.399418 43.792794,-37.273418 13.414063,-39.408203 z m -86.279298,1.476563 c -1.79362,-0.07446 -4.07997,0.264538 -6.83008,1.298828 13.11985,7.108112 14.60245,-0.976154 6.83008,-1.298828 z m 269.39844,3.648437 c -0.59877,0.482129 15.43519,21.351533 17.36914,35.564453 18.2264,9.645815 -0.71821,-17.36969 -3.35547,-21.044922 -10.03253,-10.744665 -13.74151,-14.73868 -14.01367,-14.519531 z m -563.17969,3.179688 c 9.55045,29.588426 -18.46121,31.328805 -39.58594,46.4238278 13.51223,20.4315282 -28.58851,47.0922742 -6.89648,54.2500002 20.04998,-24.566984 89.82044,-18.745452 66.41601,26.152343 -4.15283,25.918632 11.28902,2.197393 23.31446,4.041016 38.53262,3.26722 -14.06136,-16.832641 5.14258,-32.185547 34.70188,-30.28146 -18.21662,-20.577273 -39.38477,-20.472656 -5.23408,5.346386 -20.41375,-31.244057 -34.71484,-1.771484 -26.77558,-25.832904 71.94383,-44.764061 25.70898,-76.4375 z m 631.46875,11.697265 c -3.45213,2.641813 -8.98443,7.610365 -16.14648,9.623047 2.89009,6.692537 10.60652,5.377394 15.70898,2.0625 a 428.23678,428.23678 0 0 0 0.4375,-11.685547 z m -700.15625,5.751953 c -3.14383,0.128266 -6.61868,0.892179 -10.35937,2.484375 1.06488,34.24934944 -47.75749,-25.171045 -25.51758,15.40625 6.39269,14.5111113 18.91405,15.2090066 30.79492,6.710938 32.87221,4.7450666 27.08886,-25.499422 5.08203,-24.601563 z m 98.08984,6.949219 c -1.64891,-0.03515 -3.89671,1.104351 -6.80859,4.183594 9.86878,18.1629146 13.9539,-4.031278 6.80859,-4.183594 z m -225.06054,10.09961 c -12.12245,0.0079 -23.60012,3.93713 -27.38672,13.3925776 a 428.23678,428.23678 0 0 0 5.125,37.4921874 c 11.33838,2.509939 32.57878,-8.048079 41.89648,-14.277344 33.94568,-19.4631323 5.75912,-36.62399 -19.63476,-36.607421 z m 73.45312,5.925781 c -1.33037,0.251087 -2.89001,1.571469 -4.56836,4.6054685 11.79698,13.3024277 10.33329,-5.6935145 4.56836,-4.6054685 z m 721.13867,3.7167966 c -11.78402,0.134618 -25.55855,6.3727103 -25.43359,21.3828124 -5.65411,20.522393 20.10513,8.041809 27.24414,2.695313 25.20096,-14.33439838 13.34035,-24.2512056 -1.81055,-24.0781254 z M -115.7168,9.1640625 c -12.51537,-0.4310619 -21.80919,39.7995835 10.39453,40.5507815 12.441533,-0.974888 3.67824,-17.436558 1.77735,-23.597656 -3.47044,-12.147983 -8.00009,-16.8094382 -12.17188,-16.9531255 z M -219.30859,39.589844 c -3.72639,-0.200667 -9.04365,2.604984 -15.71875,11.082031 23.75808,17.185085 26.89789,-10.480031 15.71875,-11.082031 z m 171.667965,11.896484 c -2.990196,0.171003 -5.43366,4.174324 -5.017578,15.503906 23.865742,8.655081 12.65919,-15.940914 5.017578,-15.503906 z m -627.337895,2.896484 a 428.23678,428.23678 0 0 0 7.44141,27.773438 c 12.49376,-11.398501 2.3009,-24.962525 -7.44141,-27.773438 z m 288.48438,4.472657 c -2.03746,0.243984 -4.83173,4.3486 -8.15625,15.523437 13.57546,17.772455 14.26862,-16.255391 8.15625,-15.523437 z m 318.568359,10.408203 c -15.14786,-0.749926 -10.249723,13.255504 -2.421875,24.222656 4.307539,27.815612 21.659626,-17.492388 10.191406,-22.945312 -3.0321,-0.76123 -5.605551,-1.170212 -7.769531,-1.277344 z m -136.275389,2.630859 c -17.30574,0.01297 17.58701,23.943554 1.0039,42.880859 -13.41904,-13.69296 -84.56432,-28.906004 -57.80859,12.20703 -10.58719,1.83024 -9.49077,63.00185 -42.2832,64.54102 32.40678,52.72799 -72.44256,-14.99933 -38.20899,25.48047 -3.77292,38.3346 74.58017,70.11981 58.78125,16.66211 7.10397,-33.05529 59.38614,7.50232 68.20703,20.95898 -20.24065,29.96447 -2.77013,42.14032 20.33789,60.63086 36.98915,1.29676 12.77579,48.62598 -6.88085,37.26758 19.86879,-37.81483 -25.48037,-22.15921 -46.47461,-12.08203 -45.71165,46.17435 -40.05975,-51.02258 -74.36133,-39.03907 34.18464,1.51506 -1.48661,11.87082 0.54687,22.35157 37.55177,24.68145 -26.43235,-1.48884 -18.74609,17.98632 40.36657,27.57621 -24.94762,48.07307 -30.67969,13.73438 -16.2902,-10.28283 -37.30007,-48.3414 -0.0176,-28.9375 39.07843,14.59208 -19.07404,-10.83769 6.10938,-23.42969 14.01547,-30.94942 -1.76123,-12.16347 -17.85547,-1.00781 11.47268,-28.51736 -62.27328,-10.15688 -42.37891,-46.61133 7.46075,20.2157 74.54612,2.38119 77.89649,45.60547 5.18655,32.8526 17.52839,20.98106 5.54101,-4.56445 -11.62063,-21.73305 -37.46114,-90.50199 -58.88086,-57.9043 -30.69278,-7.76826 -51.82598,1.973 -69.3496,23.37891 -32.1732,-0.42087 -3.40199,18.16966 -29.45118,22.86523 -7.31535,8.6003 -12.91542,12.00915 -17.63086,12.26758 a 428.23678,428.23678 0 0 0 15.51563,11.45312 c 10.57088,-4.10866 23.59827,-3.3033 19.68359,12.15821 -0.0756,0.0889 -0.16683,0.15915 -0.24414,0.24609 a 428.23678,428.23678 0 0 0 3.7207,2.33984 c 3.90954,-2.02245 8.0577,-3.8165 12.50391,-5.33007 28.6432,-21.22984 18.707,-3.31799 5.68945,15.51367 a 428.23678,428.23678 0 0 0 167.70508,49.35351 c -1.17021,-36.26003 68.12747,10.70539 48.38672,-26.34375 18.14317,-11.26777 23.98342,11.86381 31.29883,25.00782 a 428.23678,428.23678 0 0 0 22.59766,-2.89258 c 0.56196,-0.80186 1.11388,-1.56834 1.70312,-2.4707 5.47792,-18.82546 10.19908,-8.10024 17.29883,-1.125 a 428.23678,428.23678 0 0 0 25.07617,-6.09571 c 20.67732,-14.90397 5.55995,-47.54144 16.40625,-56.28125 43.813845,-24.71211 -26.91059,8.72719 -46.14062,0.56055 -65.87648,-19.82993 -6.47146,-67.55471 20.42382,-94.12695 28.29803,-28.52967 -1.26568,-31.913 -26.38867,-30.91211 -19.55334,-31.45471 57.39454,-36.62057 78.91016,-51.83594 30.99093,-22.40693 -6.01767,16.83426 23.853514,10.75391 40.825848,-11.47215 -26.756904,28.72393 -12.361328,27.12109 35.487352,-23.51897 40.944233,26.5916 17.935546,45.60351 -13.97608,-29.49623 -52.836412,14.00203 -49.712892,39.69336 25.005224,23.44735 80.67887,49.83045 105.560549,7.125 24.9735864,-20.9467 -26.140887,-60.08184 -21.472657,-32.35546 -21.085576,24.14908 -20.167541,-46.61741 11.498047,-39.10352 53.561206,6.40331 1.898332,-71.01821 -29.414062,-47.70703 -13.177387,-49.047109 -79.836257,-19.55404 -108.072267,3.23437 -12.18566,-22.00964 -47.44972,13.66521 -44.91601,-9.96679 -17.53519,10.11057 -51.7374,-4.87167 -21.54493,-13.48633 -42.18744,-44.429248 29.35813,5.26787 48.62891,-2.9668 17.90841,-14.32111 -19.75966,-20.29729 -2.80273,-36.705077 20.65141,21.112577 14.26967,-8.521098 -3.09961,-13.064453 -7.44339,-1.821602 -12.43782,-2.639121 -15.64258,-2.636719 z m -143.96094,10.703125 c -3.2525,0.12105 -2.54128,3.590035 8.73438,13.619141 24.7609,2.053283 -1.57889,-13.88545 -8.73438,-13.619141 z M 143.48242,99.125 c -2.16993,-0.08492 -5.09963,1.48434 -8.72656,5.98438 2.50271,2.70678 4.6198,4.28562 6.39062,5.08789 a 428.23678,428.23678 0 0 0 3.75196,-10.72852 c -0.43089,-0.191753 -0.89743,-0.323455 -1.41602,-0.34375 z m -70.113279,7.00391 c -2.300374,0.0619 -5.592882,1.79337 -9.740235,6.59961 14.618356,8.0568 16.641357,-6.78537 9.740235,-6.59961 z m -449.212891,15.48047 c -13.90075,-0.40638 -38.11283,5.39761 -26.41211,23.43945 8.50707,-1.4148 9.06226,-13.73062 18.38477,-14.05664 23.41225,-4.9928 18.83903,-9.06675 8.02734,-9.38281 z m 70.61328,2.88671 c -3.05695,-0.22263 -9.02272,3.58937 -19.08398,14.99024 11.23647,22.65889 28.25484,-14.32232 19.08398,-14.99024 z m -29.25195,2.25 c -1.10251,-0.055 -2.7133,1.07325 -4.94531,4.16211 4.9694,18.53681 9.72284,-3.92383 4.94531,-4.16211 z m -114.9082,1.68946 c -2.60776,-0.20071 -5.7949,0.97309 -9.60352,3.99804 19.46253,24.13276 -35.55838,32.08689 -9.64844,53.98047 10.66182,30.57173 17.43468,8.00887 16.7832,-9.68945 13.69095,-6.05251 16.55064,-47.20523 2.46876,-48.28906 z m 92.8496,14.94726 c -13.4451,0.21246 -23.70947,5.70245 -11.01367,19.08203 3.88011,12.50624 19.84422,16.07053 28.58203,5.63672 28.52569,-14.0681 2.08218,-25.02927 -17.56836,-24.71875 z m 302.115239,16.67383 c 1.001555,-0.0707 2.641185,0.19006 5.11914,0.92578 12.184806,16.30102 -12.130025,-0.43106 -5.11914,-0.92578 z m -196.447269,0.87109 c 10.68144,-0.61138 25.63286,5.66908 20.50782,22.73047 -4.8984,4.27828 -11.20376,-1.93417 -15.39258,-4.11523 -22.20868,-10.50161 -15.79667,-18.00385 -5.11524,-18.61524 z m -257.74023,5.19336 c -2.84428,0.36911 -1.63221,4.63985 9.15039,16.25196 31.868,7.34764 -1.88168,-17.19522 -9.15039,-16.25196 z m 486.810546,2.92383 c 4.030373,-0.20067 9.52768,3.44155 16.0195309,14.30469 -27.0062509,21.48008 -28.1106509,-13.70268 -16.0195309,-14.30469 z m -238.441406,11.90039 c 2.57056,0.018 7.45417,1.78256 15.55078,6.33203 2.76324,2.32512 5.52778,4.6495 8.29102,6.97461 -2.66956,19.30432 -34.98088,-13.38456 -23.8418,-13.30664 z m 282.628906,3.50977 c -14.8136205,0.75653 -41.768397,22.71182 -28.9355472,42.99219 15.2776134,12.25749 27.4590822,-13.87415 34.7578122,-23.44336 6.366294,-14.52383 1.93725,-19.94511 -5.822265,-19.54883 z m -515.613286,4.77734 c -3.32864,0.35985 -6.70061,5.64632 -7.41992,20.43555 21.85045,1.82628 14.74295,-21.22721 7.41992,-20.43555 z m 129.58594,14.50391 c -4.01211,-0.10917 -11.00805,2.47944 -15.83203,10.01562 l 5.5625,-0.98633 c 15.65491,-4.28727 15.42797,-8.88894 10.26953,-9.02929 z m -110.3164,10.97265 c -1.83239,-0.18856 -5.66244,1.50738 -12.46485,6.57422 0.0676,18.82379 19.00908,-5.90078 12.46485,-6.57422 z m 403.878902,15.02344 c 1.442164,0.12386 3.395915,1.73591 5.679687,6.05664 -9.733986,6.58827 -10.00618,-6.42822 -5.679687,-6.05664 z m -313.625002,5.88086 c 1.72728,-0.13374 3.94725,1.09697 6.34375,4.91797 -12.26815,8.16169 -11.52558,-4.51675 -6.34375,-4.91797 z m 430.421877,10.35938 c -2.938793,-0.10182 -6.832626,1.50221 -11.539063,6.13281 4.058367,3.26002 7.372947,4.98788 9.998047,5.66601 a 428.23678,428.23678 0 0 0 7.419922,-7.41992 c -0.828774,-2.31119 -2.819311,-4.2729 -5.878906,-4.3789 z m -283.988277,2.29492 c -2.73033,-0.0478 -3.64998,3.71728 0.58398,14.90234 25.19299,10.24699 6.39351,-14.78019 -0.58398,-14.90234 z m 83.76367,6.07812 c -11.14129,-0.091 -27.53467,11.78436 -21.36524,29.76758 -5.25179,25.14214 22.16859,-8.03555 27.94727,-10.90039 6.2039,-13.14081 1.04096,-18.80495 -6.58203,-18.86719 z m -288.85742,3.04883 c 0.87799,0.16064 2.00118,1.34894 3.35937,4.19531 -6.35374,13.68424 -7.16402,-4.89143 -3.35937,-4.19531 z m 118.72265,7.34961 c -1.11483,0.1185 -3.10321,1.8357 -6.30078,6.32813 3.11169,13.21874 10.28231,-6.75133 6.30078,-6.32813 z m 358.119142,3.72656 c -7.93702,3.0975 -15.933245,10.9556 -22.558593,19.6211 a 428.23678,428.23678 0 0 0 22.558593,-19.6211 z m -584.246092,1.29688 a 428.23678,428.23678 0 0 0 12.41992,10.71484 c -3.57075,-4.21297 -7.50544,-8.22198 -12.41992,-10.71484 z m 478.025389,43.83008 c -1.367256,-0.054 -3.814128,0.38715 -7.771484,1.65429 -0.634413,8.11007 13.696261,-1.42024 7.771484,-1.65429 z m -38.898439,7.25 c -2.94131,0.30317 -6.1257,3.77177 -7.36914,13.28515 19.134797,0.69971 13.84004,-13.95214 7.36914,-13.28515 z m 34.384768,5.28125 c -2.332911,-0.074 -4.216326,3.20787 -3.820313,13.03906 4.281875,2.12179 7.092238,2.57486 8.84375,2.04297 a 428.23678,428.23678 0 0 0 1.150391,-0.60742 c 3.76916,-3.13844 -1.933259,-14.34015 -6.173828,-14.47461 z m -336.187498,12.16797 c 1.1393,0.21053 2.43223,1.87214 3.75781,5.8789 -10.74128,19.51373 -8.6948,-6.79122 -3.75781,-5.8789 z m 91.10547,7.50976 c 1.89644,-0.0869 5.00452,0.676 9.73828,2.75195 5.08784,22.96221 -19.97906,-2.28291 -9.73828,-2.75195 z"
         transform="scale(0.26458333)" />
      <path
         id="path10562"
         style="fill:#94abdd;stroke-width:4.74183"
         d="m -292.38281,-470.75781 a 428.23678,428.23678 0 0 0 -7.48438,0.84375 c -1.17494,2.99439 -0.82657,8.87976 2.72071,19.04297 14.68511,-4.33997 10.44433,-15.61585 4.76367,-19.88672 z m 71.15234,0.20898 c -2.38405,0.66219 -7.35056,3.88118 -16.24805,11.37891 -6.79969,23.68696 20.66905,-7.91944 17.8086,-11.23828 a 428.23678,428.23678 0 0 0 -1.56055,-0.14063 z m -104.8457,24.96289 c -21.78209,-0.0834 -50.35152,12.97964 -41.80274,39.28516 4.28275,1.83383 8.46631,5.46109 13.44922,5.26758 -14.55272,-39.82659 18.11324,-28.95612 40,-13.69922 21.50891,-20.47234 7.57301,-30.77995 -11.64648,-30.85352 z m 83.04492,3.79688 c -1.11483,0.11849 -3.10326,1.83576 -6.30078,6.32812 3.11185,13.2186 10.28231,-6.75131 6.30078,-6.32812 z m -168.8418,1.34375 c -1.88193,0.21638 -2.80279,3.14918 -0.26172,11.30664 13.19294,0.88874 4.40198,-11.78269 0.26172,-11.30664 z m 122.20508,8.81836 c -2.91878,0.17102 -3.15849,3.72147 4.42578,13.0332 l 8.67578,3.24219 c 4.06939,-7.45925 -8.23692,-16.56042 -13.10156,-16.27539 z m 258.802736,24.85351 c 0.859959,13.6252 9.878945,31.8987 29.2929684,27.08203 2.52164838,5.8637 7.8708168,6.13496 13.3789066,3.47071 a 428.23678,428.23678 0 0 0 -42.671875,-30.55274 z M -505.19531,-356.375 c -4.64665,0.44854 -14.43839,6.43569 -21.17774,16.33008 2.33167,3.96978 8.52299,4.4369 11.49219,0.56836 13.83562,-12.25834 14.3322,-17.34698 9.68555,-16.89844 z m 236.42187,13.31641 c -16.9533,-0.4597 11.96073,32.12493 -17.23633,22.49218 -4.06817,15.45019 16.77863,49.44701 38.19727,61.68555 26.5205,8.87662 9.6621,16.0146 -6.62109,4.30664 -45.32107,-13.95528 12.85453,17.55667 0.66406,37.42578 -30.21102,-2.03222 -9.9003,21.57189 8.79101,28.21094 -2.02241,45.44409 37.93306,0.53564 64.30664,14.85156 26.77078,23.13582 0.18377,34.20746 -25.27929,30.53906 30.31083,7.13727 -0.51436,59.713257 -21.15039,36.4629 -10.42165,5.80622 -45.31105,-1.83855 -67.93946,7.527339 -0.0287,47.629826 63.04082,-18.398379 65.94727,28.066407 22.50795,1.694162 17.52643,37.457964 -1.37695,12.572265 -28.22785,-34.905947 -29.57886,36.643871 2.88281,16.042969 -22.30037,25.508496 6.80969,56.25926 15.47851,84.435547 -31.56545,23.367859 34.92796,48.409387 32.72657,29.767578 11.47256,-36.67534 24.4695,17.888648 4.58593,30.355465 -15.47307,27.55968 3.73171,8.37643 16.42579,17.16993 -6.63674,-18.4212 73.280138,-55.378996 56.98242,-1.15821 29.416934,-16.21297 34.565904,38.36115 59.390623,27.96094 20.218719,7.10361 49.3342084,31.31664 79.380859,18.8457 28.356624,16.42091 -27.9844153,14.16844 -16.527343,15.06836 43.564565,21.69279 -43.602445,75.52713 -26.6718752,26.80469 25.1591772,-29.13489 -7.6610348,-10.67342 -23.1621098,-10.10742 -38.016198,-9.3432 -17.405448,74.80206 -13.603515,32.91211 63.810704,-10.03042 11.308082,86.15173 -32.146485,58.42969 -22.37659,-35.79447 -28.842754,14.31062 -49.134764,24.56445 -6.31799,10.39525 -12.78303,35.41481 -22.4336,56.89648 a 428.23678,428.23678 0 0 0 29.47657,-9.14843 c 0.52662,-3.87085 7.45005,-6.05229 15.58593,-5.50586 a 428.23678,428.23678 0 0 0 56.197271,-27.05079 c -6.670479,-13.66184 16.84631,-24.1116 28.21289,-17.66601 a 428.23678,428.23678 0 0 0 27.960938,-20.93555 c 6.09283,-8.17229 13.339896,-15.46372 22.179687,-19.13281 A 428.23678,428.23678 0 0 0 45.664062,257.2832 c -15.624851,5.8567 -10.635071,-21.80407 6.757813,-6.75781 a 428.23678,428.23678 0 0 0 88.533205,-139.7832 c -8.23531,1.63418 -6.30785,-16.966623 3.51758,-10.05664 A 428.23678,428.23678 0 0 0 169.2832,-26.345703 c -15.69655,-2.855191 -42.92941,7.326505 -50.58203,-1.587891 -43.455683,-30.064065 25.49452,-60.902962 -6.71679,-91.800786 -38.211943,36.812743 -56.111325,-13.71601 -79.197271,-38.16406 -29.1403484,-21.57744 40.911778,-45.32243 17.076172,-23.55859 -17.383456,28.38634 27.088124,-0.43097 28.962891,-15.82227 5.449895,-17.95827 19.680351,-41.59649 36.714848,-55.50976 a 428.23678,428.23678 0 0 0 -17.273442,-28.29297 c -13.558924,7.33717 -28.413258,18.37689 -47.599609,12.37109 -22.590571,-28.78534 -51.13981872,-60.8301 -95.189453,-56.94922 -45.336979,8.46697 -0.186963,45.10454 27.33789,34.96289 24.9127199,-8.82541 45.998131,21.93649 13.4531252,19.67188 -19.5288692,-38.33604 -68.9038182,14.49044 -22.7968752,15.40625 45.780696,-10.3096 -17.530897,26.18117 -33.835937,6.66992 -10.637688,-32.61678 -31.389502,-15.31067 -52.673829,-5.28125 -54.09755,7.9209 -18.20465,-71.38618 -62.72266,-67.67383 21.5386,40.82362 -35.0981,46.66673 -62.7207,42.01758 -4.83742,-19.18804 -13.84105,-43.9333 -28.50586,-63.02148 -0.64583,-0.0861 -1.24023,-0.13556 -1.78711,-0.15039 z m -124.65429,3.63671 c -3.04471,-0.13297 -7.19345,1.0405 -12.38477,4.54883 20.05411,13.06308 23.2587,-4.07392 12.38477,-4.54883 z m 43.77734,9.23047 c -0.85043,-0.11184 -0.18573,1.45769 3.39062,6.01368 22.00206,16.2248 -0.35339,-5.61423 -3.39062,-6.01368 z m -95.98242,0.83985 c -4.93388,0.0942 -11.3526,4.52962 -12.33985,15.79687 l 9.3125,0.0703 c 13.25975,-8.933 9.3709,-15.98823 3.02735,-15.86718 z m 331.7539,8.4707 c -0.63904,0.0507 -0.8197,1.50301 -0.006,5.35547 l 3.63282,5.07812 c 4.33035,1.87826 -1.70983,-10.58578 -3.62696,-10.43359 z m -204.57421,12.71875 c -4.72168,0.17152 -4.56122,2.64437 10.95507,8.42383 l 2.0918,3.38867 2.73242,1.875 c 13.51869,-7.86425 -7.90984,-13.97336 -15.77929,-13.6875 z m 397.714839,2.01758 c -1.15172,-0.0269 -3.109636,3.41002 -6.148438,12.93945 4.077957,31.42089 10.261721,-12.84333 6.148438,-12.93945 z m -256.945309,0.87109 c -1.2664,-0.18344 -3.00219,0.40624 -5.26368,2.30469 7.43582,13.79888 10.75137,-1.50976 5.26368,-2.30469 z m -190.47071,16.92774 c -44.30652,1.44367 -56.20739,55.31138 -75.59375,87.60547 26.5886,8.78628 70.70695,-11.67979 82.14844,-38.83399 33.1795,-3.31364 35.33238,-41.91466 2.75,-48.33984 -3.25365,-0.39169 -6.35092,-0.52789 -9.30469,-0.43164 z m -160.45508,4.79687 c -2.50901,-0.19682 -6.15003,2.0217 -9.9746,9.20313 15.53556,3.34874 15.49444,-8.77011 9.9746,-9.20313 z m -84.91992,6.06445 c -3.96252,0.7461 -15.51164,34.12686 -3.98047,44.10743 27.51939,16.99963 -2.45852,-14.23525 3.31055,-26.63477 2.61031,-13.05921 2.22048,-17.76461 0.66992,-17.47266 z m 114.16602,1.98829 c -1.15927,0.0943 -3.54469,2.3492 -7.74219,8.37109 0.38897,18.50329 11.88245,-8.70788 7.74219,-8.37109 z m -86.12891,15.02148 c -5.68319,-0.27728 -11.65224,4.75624 -5.61523,19.03516 19.75713,-9.54379 12.9222,-18.67865 5.61523,-19.03516 z m 206.14649,8.9707 c 3.36318,0.2781 2.76846,3.71112 -7.5,12.83008 l -0.41602,4.62695 c -35.1201,1.72761 -0.6788,-18.16771 7.91602,-17.45703 z m 167.43164,1.31641 c 10.25778,-0.18242 21.42145,9.65131 12.89258,28.12109 3.06594,52.82044 -13.01504,23.40914 -23.7793,-3.29882 -6.50985,-16.70274 1.83574,-24.66131 10.88672,-24.82227 z m -99.85156,3.71289 c -16.17356,0.34423 -38.13047,13.37653 -22.91993,28.85938 7.82252,9.14477 22.24107,5.33316 29.95508,-1.82032 14.62642,-19.90074 5.54428,-27.3068 -7.03515,-27.03906 z m -271.36329,14.06055 c -1.68626,0.0536 -4.18515,1.55729 -7.61523,5.59375 9.2959,12.51982 13.63759,-5.78507 7.61523,-5.59375 z m 171.13672,4.44922 c 1.46648,-0.0642 3.52165,1.48475 6.17969,5.88672 -9.14466,15.14388 -11.4171,-5.65728 -6.17969,-5.88672 z m -226.29297,6.41601 c -4.2593,-0.0619 -8.16481,0.66701 -10.57031,2.63867 a 428.23678,428.23678 0 0 0 -2.41601,5.53516 c 0.0417,1.94093 0.64958,4.27135 2.04492,7.10352 32.66793,8.42957 -16.73359,-5.11404 12.875,-8.79688 32.72291,3.76303 13.34644,-6.25824 -1.9336,-6.48047 z m 104.10547,0.42383 c -1.67493,-0.02 -5.52857,1.41562 -12.64648,5.25586 -13.75033,22.2687 19.90453,-5.16912 12.64648,-5.25586 z m 473.328128,7.20312 c 1.501649,0.0515 3.458596,0.94326 5.933593,3.11719 -8.853038,20.83173 -14.042503,-3.39504 -5.933593,-3.11719 z m -423.763668,4.60938 c -22.91659,-0.50511 -48.11003,12.52814 -63.45313,27.54102 2.16102,22.40866 31.89598,9.89823 44.29688,5.33203 19.82248,-34.58664 45.68491,29.39331 59.11523,-9.1211 -9.6638,-16.72254 -24.27921,-23.40635 -39.95898,-23.75195 z m -111.87696,6.75977 c -2.40393,-0.0943 -5.33877,0.99918 -8.22851,4.33789 17.87618,6.91497 15.4403,-4.05498 8.22851,-4.33789 z m -59.97656,1.09179 a 428.23678,428.23678 0 0 0 -12.97852,38.53125 c 7.53956,-4.31796 17.71171,-5.68735 28.47657,-0.99414 -16.6043,-7.31928 -2.95523,-15.72312 4.86132,-24.82617 -5.75566,-5.19736 -13.0786,-9.75728 -20.35937,-12.71094 z m 427.70117,1.83203 c 2.10792,0.0885 5.42868,1.71079 10.25781,6.00196 -9.85396,12.92611 -17.78608,-6.31815 -10.25781,-6.00196 z m 158.187502,0.11524 c 1.466477,-0.0643 3.52165,1.48475 6.179687,5.88672 -9.144658,15.14389 -11.417104,-5.65728 -6.179687,-5.88672 z m -56.421872,8.04687 c 8.42782,44.63588 53.357486,-5.80248 78.294919,17.5 33.823472,18.53625 -35.578737,36.57856 -41.263672,11.98828 -23.077427,19.60599 -72.989627,-4.07567 -37.031247,-29.48828 z m -292.125,0.59766 c -1.77742,0.24057 -1.64662,2.80905 2.36133,9.40039 34.67322,18.58419 3.98658,-10.25957 -2.36133,-9.40039 z m -114.84961,1.10547 c 1.03888,-0.067 1.99743,1.4106 2.50586,5.62109 -10.96341,14.55225 -6.21615,-5.38191 -2.50586,-5.62109 z m 219.27929,4.93164 c -2.07837,0.0396 -4.19307,1.49489 -5.76171,5.42969 20.13379,12.35837 13.18447,-5.57096 5.76171,-5.42969 z m -318.02148,6.16992 c -2.0792,0.0185 -1.71542,2.62051 5.22461,10.3457 15.75241,2.07667 -0.65037,-10.38645 -5.22461,-10.3457 z m 648.425781,2.92773 c 4.753742,-0.24182 6.84447,3.16801 2.308594,13.12891 l -6.111328,6.96094 -3.9687501,2.37695 c -44.7284339,11.84683 -6.4897396,-21.74131 7.7714841,-22.4668 z m -305.722651,14.98047 c -2.59224,0.15235 -3.46468,2.14066 -0.10938,7.43164 l 0.0566,0.0312 2.14453,1.20313 c 28.94369,6.94986 5.68491,-9.12306 -2.09179,-8.66602 z m -285.06446,3.91797 c -1.46647,-0.0642 -3.52166,1.4828 -6.17969,5.88477 9.14466,15.14387 11.4171,-5.65533 6.17969,-5.88477 z m 324.5586,5.16992 c -1.84596,-0.29259 -4.61214,1.74105 -8.29493,8.22266 11.09213,14.47576 13.83278,-7.34489 8.29493,-8.22266 z m 112.57031,11.20899 c 3.85146,-0.14795 7.62925,3.39489 8.94336,14.17578 -29.10703,10.6773 -18.78598,-13.7977 -8.94336,-14.17578 z m 230.574217,5.72265 c -1.329368,-0.29869 -3.14228,2.23282 -5.285156,10.14454 8.904758,17.10855 9.273261,-9.24845 5.285156,-10.14454 z m -204.923827,15.85352 c 26.48261,1.01917 52.943794,31.151286 14.585936,49.201172 -17.558746,6.327103 -35.867926,10.845229 -54.425776,12.939454 -36.4398,7.932661 -23.39727,-28.296318 2.46093,-26.792969 -13.86794,-16.401816 -13.38675,-47.796217 10.16407,-20.703127 6.48697,-10.98442 16.85208,-15.04333 27.21484,-14.64453 z m -338.73633,6.22656 c -6.47445,0.27072 -7.99425,2.80053 0.89063,8.76368 34.1376,27.437324 -14.73022,-2.34792 -28.19532,-6.32618 -20.38182,35.126343 80.08158,29.697476 58.30274,63.933597 8.16257,8.064045 20.54919,-9.249889 26.75,-13.603516 18.15974,-15.10645 16.03534,-28.790031 -1.08789,-34.30664 -4.189,-8.724181 -42.41637,-19.056511 -56.66016,-18.460941 z m 70.6875,0.19922 c -2.22586,-0.33959 -5.10395,0.89473 -8.23828,5.19727 15.72643,11.004679 14.91585,-4.17848 8.23828,-5.19727 z m 337.605469,7.58399 c 2.461833,0.22279 5.966791,2.79477 10.353516,9.636715 -15.737485,10.176647 -17.739012,-10.305115 -10.353516,-9.636715 z m -376.874999,5.085934 c 2.53093,-0.151942 6.28295,1.332219 11.43555,5.736328 -13.93816,16.216402 -20.47459,-5.193679 -11.43555,-5.736328 z m 404.687499,1.542968 c 1.569232,0.08354 3.987338,2.065436 7.4335941,7.355469 -7.8212201,16.246046 -13.0379911,-7.653817 -7.4335941,-7.355469 z M -510.56445,-78.1875 c -0.94046,0.233382 -2.37129,2.419302 -4.31055,8.128906 5.53768,8.036825 7.1319,-8.829051 4.31055,-8.128906 z m 23.17773,6.480469 c -8.1888,0.0031 -11.88853,5.221853 4.42969,17.734375 l 5.51367,5.072265 6.23242,4.103516 c 17.34854,-15.779187 -4.20752,-26.914619 -16.17578,-26.910156 z m 124.11133,0.732422 c -4.12725,-0.208767 -8.14578,4.262283 -8.74609,17.951171 l 2.29101,3.052735 c 25.13736,2.56436 15.53504,-20.544619 6.45508,-21.003906 z m -232.80273,3.722656 c -1.37697,0.09677 -2.91025,3.170366 -4.1504,11.697265 l 0.25196,1.052735 c 10.76077,13.472445 8.02934,-13.040313 3.89844,-12.75 z m 513.333979,6.787109 c 8.770166,0.807968 34.237896,24.888812 15.416016,38.158203 -20.682712,24.596917 -52.315435,-19.421339 -11.298828,-21.632812 -8.641299,-12.450422 -8.103626,-16.892649 -4.117188,-16.525391 z m -366.675779,4.408203 c -2.30472,0.07598 -3.86487,2.296377 -3.43555,8.265625 29.40313,18.55409 11.66668,-8.536986 3.43555,-8.265625 z m -230.19922,4.480469 c -1.27295,-0.02736 -3.21529,1.911154 -5.96094,7.316406 6.50746,17.969344 10.5072,-7.218709 5.96094,-7.316406 z m 189.99219,14.03125 c -12.94423,-0.216717 -22.38726,2.291182 -9.83594,14.476563 18.21479,6.385083 34.3818,15.6856092 40.67773,-12.611329 -1.45253,1.291656 -17.89757,-1.648517 -30.84179,-1.865234 z m -180.96485,10.828125 c -6.16137,0.238057 -11.89701,2.393852 -14.96484,7.859375 5.99131,5.083806 14.1857,2.937349 21.24805,4.189453 34.50316,3.782523 12.20092,-12.762998 -6.28321,-12.048828 z m 64.39649,3.060547 c -6.59715,0.03468 -12.87204,0.493973 -17.86524,1.257812 4.40191,9.744792 -4.16486,51.902758 -38.38281,51.625 l -7.98242,3.164063 c 26.7984,-0.734283 62.84248,-10.158598 90.28125,-22.9140625 37.19316,-25.4689885 2.53686,-33.2830895 -26.05078,-33.1328125 z m 22.0625,9.367188 c 1.68626,0.05357 4.18319,1.55729 7.61328,5.5937495 -9.29593,12.519828 -13.63565,-5.7850705 -7.61328,-5.5937495 z m 246.61523,0.564453 c -20.07092,0.08942 -49.47789,14.67162125 -36.43359,23.751953 -29.9911,-5.4704941 -40.50566,28.204076 -38.19531,53.265625 14.89073,18.147012 14.75387,-4.038505 32.43359,-4.21875 40.6227,4.998474 10.41463,-25.936726 21.05078,-44.261719 39.03222,-8.0261458 72.88616,27.769981 111.69531,33.818359 0.0694,-21.200273 -62.17905,-16.416944 -75.6914,-42.5449215 5.86486,-14.6991753 -2.81683,-19.8641995 -14.85938,-19.8105465 z m 482.86524,2.763671 c 6.7278,-0.550553 9.81174,3.923985 2.76562,17.7597661 -5.06122,5.1634189 -10.96798,9.5613779 -17.57031,12.5585939 -43.389293,5.315503 -2.3886,-28.911389 14.80469,-30.31836 z m -450.14454,10.60546925 c -1.46647,-0.0642429 -3.52165,1.48279725 -6.17968,5.88476565 9.14466,15.1438781 11.4171,-5.65532681 6.17968,-5.88476565 z M -509.95312,7.9316406 c -1.49182,0.064452 -1.42381,2.2649134 2.98046,8.6621094 11.13849,1.394268 0.30152,-8.8039038 -2.98046,-8.6621094 z m 390.69335,4.6113284 c 10.80963,0.250903 25.08277,13.164296 20.074223,32.974609 -7.187903,15.385724 -23.943843,2.036819 -28.310543,-7.871094 -6.48252,-17.834771 -0.17116,-25.298662 8.23632,-25.103515 z m -370.46875,1.326172 c -1.46647,-0.06424 -3.52165,1.484748 -6.17968,5.886718 9.14468,15.143885 11.41711,-5.657279 6.17968,-5.886718 z m 626.82813,11.851562 c 1.30038,-0.313494 2.68761,1.726191 3.84375,7.990235 -12.02716,24.248105 -8.48796,-6.870611 -3.84375,-7.990235 z m -671.375,2.572266 c -3.56579,-0.277535 -4.46613,3.059281 1.61133,13.228515 l 5.99023,6.066407 c 28.03348,5.734687 1.51101,-18.585666 -7.60156,-19.294922 z m 65.41406,1.203125 c -3.22423,0.04993 -6.4192,0.639967 -9.41797,1.896484 -48.44829,28.888702 45.49679,11.644233 10.82227,41.470703 3.56542,11.922259 11.30902,-6.257944 12.56836,-8.84375 32.55622,-8.783946 8.59697,-34.872936 -13.97266,-34.523437 z m 561.248049,6.958984 c 17.797861,2.52e-4 44.516181,19.53667 49.769531,40.341797 -11.87065,8.513541 -28.01579,24.579745 -51.769531,30.683595 l -5.164063,3.25976 -5.78125,1.97266 C 20.155743,124.16439 70.994767,67.311695 101.66797,73.328125 134.41721,48.253594 68.536686,69.760208 81.863281,39.800781 84.646988,37.495533 88.279519,36.45502 92.386719,36.455078 Z m -284.257809,1.134766 c 7.52787,-0.336934 11.73576,5.00689 -0.5586,19.091797 -0.15624,6.271203 -6.7921,10.437106 -12.58008,9.236328 -15.95862,-15.209243 2.1364,-27.835684 13.13868,-28.328125 z m -203.26563,0.08203 c 2.61646,-0.08766 5.02352,2.614314 5.91992,10.535156 -23.50448,15.099049 -13.7693,-10.272177 -5.91992,-10.535156 z M -653.7207,52.916016 c -0.93014,-0.102319 -2.72802,1.138229 -5.7793,4.773437 1.34498,13.104608 9.10121,-4.408014 5.7793,-4.773437 z m 706.654294,1.667968 c 2.041227,0.284268 5.976169,3.190095 10.695312,10.798828 C 51.388094,60.919575 49.531549,54.110205 52.933594,54.583984 Z m -101.490235,0.34961 c 2.09218,-0.04972 4.748496,0.265479 8.066407,1.060547 4.139379,34.051447 -28.290807,-0.579926 -8.066407,-1.060547 z M -626.9082,60.244141 c -11.58094,-0.03965 -27.43664,6.303605 -22.84375,21.583984 5.01278,9.392576 15.09196,-1.122263 20.0332,-4.873047 21.69761,-10.250332 14.39149,-16.67129 2.81055,-16.710937 z m 259.99804,7.273437 c -19.08008,-1.167525 -36.9362,56.073392 -59.5039,61.232422 -40.35107,-5.54398 -0.61993,28.04772 13.54687,32.44141 -23.31942,6.90232 -42.45321,9.13806 -45.89258,39.81836 -4.37805,32.30459 -61.95315,17.37431 -57.7832,52.71679 -16.23337,-17.91277 -41.81138,-26.82137 -66.26367,-18.71094 a 428.23678,428.23678 0 0 0 18.48828,20.20313 c 2.63805,-3.70918 4.6381,-7.28202 5.48438,-10.26953 3.06111,31.89353 68.56761,18.64319 66.73828,6.08789 16.68007,16.92865 24.21477,10.61226 41.11523,-6.14453 -2.52699,-22.43524 17.80565,-91.10098 61.83008,-64.6543 -45.32976,37.11797 26.09216,54.52974 37.24609,91.01172 25.93113,12.41928 -16.0997,85.78421 11.18164,50.43359 18.31222,-47.56005 50.49585,-8.49025 55.00196,22.40821 19.48052,25.26166 91.40367,-48.63272 86.47656,0.6875 -15.12385,31.60421 26.15711,-4.02197 27.25976,-13.01368 -15.9069,-4.32865 -32.96182,-38.98183 -55.78515,-42.85351 28.91003,-31.49288 -1.47631,-52.12072 -31.49414,-64.48438 -40.91293,-18.34674 -1.33334,26.88021 -31.4668,36.32813 -54.17426,19.8593 -28.42334,-74.60917 -82.00195,-47.05274 -8.18341,-36.13927 71.51898,14.84384 74.05469,-12.33984 -22.19235,-16.65319 -14.00688,-41.90579 -23.99024,-57.76172 11.59845,-30.62855 23.16042,10.36757 40.27149,-8.29101 2.89633,45.26522 28.52845,-27.04679 2.29492,-34.23828 -22.93616,-18.467237 -105.835,14.04682 -52.65625,31.73242 -7.79155,13.25301 -19.80053,6.17386 2.04492,17.33984 7.08947,40.65613 -36.5729,20.923 -52.0957,1.75 -63.97671,-12.3511 13.93364,-42.93672 32.34375,-67.234374 -5.66483,-11.910786 -11.10289,-16.815671 -16.44532,-17.142578 z m 301.238285,4.816406 c 7.775775,0.517996 15.082736,5.661357 8.685547,17.962891 7.249447,31.556945 -19.867948,24.934925 -12.878906,-2.396484 -16.57709,-9.251512 -5.804066,-16.232401 4.193359,-15.566407 z m 64.2988281,1.990235 c 5.8906828,0.672165 6.9411801,19.486854 -9.1523441,18.929687 -19.801115,23.366884 -19.013415,-16.980073 0.7500004,-9.136718 3.0503845,-7.540821 6.0972939,-10.055991 8.4023437,-9.792969 z m -664.4589831,2.46875 c -0.54682,0.09425 -1.39429,0.808179 -2.55078,2.205078 a 428.23678,428.23678 0 0 0 1.97851,6.423828 c 1.46043,-4.859671 2.06822,-8.886739 0.57227,-8.628906 z M 26.507812,121.60547 c 2.85234,0.35075 2.782685,4.28895 -3.730468,14.49219 l -5.785156,6.83203 c -33.899387,8.8497 0.958606,-22.37648 9.515624,-21.32422 z m -245.888672,2.4043 c -1.34077,-0.18963 -2.74672,1.0369 -3.87109,4.80859 12.62155,14.61076 8.65955,-4.13135 3.87109,-4.80859 z m 52.13281,5.51171 c -2.99303,0.26941 -5.74303,5.11168 -6.21484,18.65235 23.10445,9.83316 13.86371,-19.34083 6.21484,-18.65235 z m -298.14062,0.63282 c -3.35291,0.32516 -6.90363,5.41519 -9.38281,18.8164 l -1.92188,6.90039 1.95703,4.28125 c 27.69475,10.93701 19.40637,-30.97354 9.34766,-29.99804 z m 269.65429,7.00195 c -1.46647,-0.0642 -3.52164,1.48475 -6.17968,5.88672 9.14465,15.1439 11.4171,-5.65727 6.17968,-5.88672 z m 266.152349,3 c 1.739876,0.1833 3.945108,3.18813 6.501953,10.95313 l -2.246094,6.72851 C 63.91667,174.83546 64.204125,139.5016 70.417969,140.15625 Z m -622.541019,16.25391 c -13.24034,0.30816 -37.42674,12.00497 -21.37695,27.99804 19.59043,16.58961 11.21888,1.46491 16.78711,-10.36132 17.58406,-12.7258 13.64902,-17.84757 4.58984,-17.63672 z m 169.40039,0.59961 c 1.04823,0.0469 1.50704,2.02172 0.61914,7.37109 -15.63307,16.88451 -4.3628,-7.53868 -0.61914,-7.37109 z m 327.984379,2.66015 c -1.491807,0.0645 -1.421845,2.26493 2.982422,8.66211 11.138459,1.39431 0.299553,-8.80389 -2.982422,-8.66211 z m -227.652339,15.6875 c -1.03888,-0.067 -1.99742,1.41061 -2.50586,5.6211 10.96334,14.55223 6.21614,-5.38192 2.50586,-5.6211 z m -334.05079,2.55469 c -2.51038,0.0116 -4.91776,0.36526 -7.20703,1.02148 a 428.23678,428.23678 0 0 0 12.24219,19.31641 c 5.87635,-2.80226 10.6383,-2.53357 7.79297,6.33594 -0.64894,0.52799 -1.29832,1.05599 -1.94727,1.58398 a 428.23678,428.23678 0 0 0 3.91993,5.3125 c 11.26411,-6.66037 18.13242,-15.00754 10.4375,-23.37695 -9.03246,-7.13387 -17.60574,-10.22863 -25.23829,-10.19336 z m 364.50782,17.14062 c -1.36726,-0.054 -3.81414,0.38518 -7.77149,1.65235 -0.63434,8.11016 13.69627,-1.4183 7.77149,-1.65235 z m 178.488278,16.04688 c -1.392406,-0.0753 -3.200359,1.99941 -5.181641,8.09375 9.800784,11.69219 9.358857,-7.86801 5.181641,-8.09375 z M -422.64844,228.7832 c -1.76771,0.0164 -2.08029,1.79275 0.51758,6.57422 l 7.87891,4.05664 c 22.79775,11.7178 -2.08324,-10.68944 -8.39649,-10.63086 z m 188.76953,19.12696 c 2.88286,-0.19503 6.67225,3.26246 10.48047,13.91601 -19.29407,10.93494 -17.84777,-13.4176 -10.48047,-13.91601 z m -206.45898,8.90429 c -0.93013,-0.10232 -2.72998,1.1402 -5.78125,4.77539 1.34492,13.10461 9.10313,-4.40995 5.78125,-4.77539 z m -62.44141,8.95703 c -1.43617,-0.32126 -3.20707,0.94567 -4.98242,5.30079 10.59163,10.92338 9.29094,-4.33698 4.98242,-5.30079 z m 180.97266,0.0899 c 2.68628,0.15403 5.80038,4.08263 8.12695,15.23242 -19.05689,8.62974 -14.99189,-15.62607 -8.12695,-15.23242 z m -193.42383,15.79297 c -3.14368,-0.16093 -7.43446,1.74028 -12.60351,7.01758 a 428.23678,428.23678 0 0 0 12.01562,9.17773 c 9.18077,-3.55532 8.23425,-15.80389 0.58789,-16.19531 z m 140.05859,3.13867 c -3.24589,-0.15883 -7.77513,3.05622 -13.29492,12.60351 21.22498,18.70988 23.03261,-12.12703 13.29492,-12.60351 z m 123.29102,0.68555 c 16.46854,-0.1588 32.8453,8.95027 12.0332,28.27148 -2.11151,15.32467 -18.89666,6.0219 -24.62304,-0.93945 -20.43961,-17.74833 -3.8787,-27.17324 12.58984,-27.33203 z m 173.771485,28.6621 c 1.65679,-0.0453 4.144594,0.35234 7.681641,1.48633 -6.422557,7.2088 -14.861062,-1.29009 -7.681641,-1.48633 z m -31.441405,8.20508 c 1.32885,-0.0178 2.83646,0.10502 4.54101,0.39649 -4.03257,31.75063 -24.47372,-0.13001 -4.54101,-0.39649 z m 32.679686,4.68946 c 1.737705,-0.0846 4.281573,2.03468 7.728516,8.05273 -9.865934,20.66417 -13.934606,-7.75065 -7.728516,-8.05273 z m -334.117186,10.14257 c -1.34453,-0.15481 -3.85714,2.09462 -7.96289,8.875 5.51715,13.69093 11.99648,-8.41055 7.96289,-8.875 z m 91.82031,8.03711 c -2.21805,0.2432 -4.00657,3.06897 -4.04687,10.58985 21.22073,11.20289 10.70102,-11.31943 4.04687,-10.58985 z m 85.80664,4.34375 c -2.24187,0.0412 -5.85801,2.51117 -11.22851,9.23829 9.71503,21.44964 19.23518,-9.3854 11.22851,-9.23829 z m 54.03321,11.44336 c -3.01955,-0.201 -7.67601,3.82564 -13.10157,16.42383 1.88064,0.50102 3.56375,0.71045 5.09766,0.72461 a 428.23678,428.23678 0 0 0 5.28906,-1 c 8.2185,-3.62866 7.77325,-15.81172 2.71485,-16.14844 z m -97.11329,5.02735 c -7.79117,0.0591 -14.21057,4.60046 -15.34765,16.88867 a 428.23678,428.23678 0 0 0 33.49414,1.36523 428.23678,428.23678 0 0 0 12.14258,-0.45508 c -4.14405,-8.16966 -18.66013,-17.88701 -30.28907,-17.79882 z m 54.30664,8.76953 c -1.86017,-0.24329 -4.61424,1.63614 -8.23046,7.55859 0.30902,0.35388 0.57132,0.5414 0.86718,0.84766 a 428.23678,428.23678 0 0 0 9.97657,-0.88086 c 0.69474,-3.27489 -0.18009,-7.20715 -2.61329,-7.52539 z"
         transform="scale(0.26458333)" />
      <path
         id="path10560"
         style="fill:#6fd4d6;stroke-width:4.74183"
         d="m -309.99023,-468.77344 a 428.23678,428.23678 0 0 0 -16.20704,2.13867 c -2.77228,2.68345 -5.09801,6.62467 -6.16211,12.13282 1.65407,4.6478 7.67129,2.68923 9.94532,0.0449 11.71872,-6.05625 14.20893,-11.3629 12.42383,-14.31641 z m -33.96094,5.49805 a 428.23678,428.23678 0 0 0 -6.10352,1.1543 c 2.58751,1.37997 4.63483,0.55292 6.10352,-1.1543 z m 72.34765,7.70312 c -1.46647,-0.0642 -3.52167,1.48477 -6.17968,5.88672 9.14471,15.1438 11.4171,-5.65729 6.17968,-5.88672 z m -97.95117,13.69532 c -3.72908,0.0885 -8.69782,2.57829 -14.45117,9.27929 l -0.21094,3.40039 2.41992,2.50782 c 23.45512,5.89541 23.42945,-15.45294 12.24219,-15.1875 z m -59.86719,12.48828 c -12.44087,0.18126 -23.7051,5.01329 -28.45312,15.75 -28.3158,-5.22516 -21.45409,25.61742 -40.76562,20.7207 -1.86972,-0.66732 -3.63502,-1.1648 -5.34571,-1.57226 a 428.23678,428.23678 0 0 0 -48.16406,39.19726 c -4.31703,6.57312 -9.22918,12.32963 -15.71875,15.71875 a 428.23678,428.23678 0 0 0 -27.23047,31.32617 c 0.0408,0.29365 0.1254,0.58251 0.15625,0.87696 6.77715,42.80838 31.52898,33.13314 62.23242,24.95703 32.01079,15.52678 73.2146,-20.16721 30.0293,-40.18946 -52.83553,-8.53057 7.73867,-68.76229 4.42187,-28.28515 -2.52858,59.78707 53.02093,-36.76985 78.22071,-3.67969 -35.72232,7.6933 12.95369,11.70862 25.51367,13.13281 49.8688,29.98993 -30.33612,54.76206 -44.4082,80.55664 3.43589,10.8261 22.58956,-10.26164 30.46289,-9.16211 49.73561,-9.20423 43.7689,-52.58439 50.7539,-89.6582 -28.42742,15.62426 -59.67741,2.18096 -24.76758,-28.61719 4.84984,-24.8152 -23.18673,-41.41831 -46.9375,-41.07226 z m -14.45898,35.72656 c 1.03888,-0.067 1.99541,1.40869 2.50391,5.61914 -10.96311,14.55207 -6.21418,-5.37997 -2.50391,-5.61914 z m -104.12109,73.95117 c 7.31645,-0.36209 20.93284,3.01134 28.38476,9.90821 35.05455,15.81498 -13.04892,11.7854 -18.96679,2.60351 -17.75042,-8.0511 -16.73443,-12.14963 -9.41797,-12.51172 z m -28.88477,2.94727 c 3.59472,-0.43355 8.70733,3.81397 14.59375,17.39453 -23.05409,15.39258 -23.78024,-16.28657 -14.59375,-17.39453 z m 245.10156,0.91406 c -55.26664,10.34187 17.85217,30.01659 3.88477,55.30664 13.53705,14.32081 42.63845,-7.32274 41.27344,-23.25195 -26.8537,3.21448 -41.02341,-6.33721 -45.15821,-32.05469 z m -205.16015,50.73633 c -15.6332,-0.19003 -38.3879,10.69668 -37.08008,32.07812 3.10911,44.20444 57.98993,-19.59262 44.37891,23.99805 26.38809,18.23705 22.64977,-34.5409 1.58007,-35.25586 11.12995,-13.82377 3.28025,-20.67251 -8.8789,-20.82031 z m 298.68359,11.98437 c -1.73305,0.10824 -3.8448,0.90578 -6.32812,2.74805 13.99134,16.19488 15.68657,-3.33253 6.32812,-2.74805 z m -32.05859,6.88868 c -8.79515,-0.16719 -33.4866,21.08119 -33.59961,38.29492 l 7.00195,2.76562 c 38.79141,12.39397 -2.56164,-21.43792 27.19531,-29.50195 3.85174,-8.14854 2.84393,-11.49317 -0.59765,-11.55859 z m -282.92774,2.125 c 1.39241,-0.0753 3.1984,1.99746 5.17969,8.09179 -9.80076,11.69225 -9.3569,-7.86603 -5.17969,-8.09179 z m 338.20313,1.11914 c -6.31836,0.27749 -11.34974,5.69046 -5.78711,18.60742 2.42658,4.07138 7.72082,8.12632 12.69922,5.6914 14.30897,-14.14052 2.32241,-24.7044 -6.91211,-24.29882 z m -127.52344,3.67578 c -2.22851,0.17682 -5.59795,1.73286 -10.66602,5.20117 -3.16002,20.33716 3.18247,39.66856 -19.38476,55.51953 30.53319,0.10756 84.15002,0.51555 105.27539,-17.40039 -18.55821,2.10165 -31.46183,0.74188 -51.65039,-9.42969 -32.81412,4.42076 -11.54024,-34.84545 -23.57422,-33.89062 z m -37.18945,19.33398 c -0.9674,0.12639 -3.10812,1.50073 -6.99219,4.90625 -6.64428,17.43048 11.18423,-5.45394 6.99219,-4.90625 z m -190.40039,12.00781 c -6.31267,-0.14314 -11.793,3.03065 -12.66211,12.38282 2.35638,5.66222 9.18024,6.12302 14.30664,5.97656 36.05703,4.03851 14.48785,-17.99355 -1.64453,-18.35938 z m -51.2461,9.38868 c -2.46815,-0.24291 -5.54277,3.01733 -7.12304,13.54101 14.3354,0.15527 11.83497,-13.07729 7.12304,-13.54101 z m 396.73242,0.78515 c -1.49734,0.1341 -3.40442,1.31085 -5.69335,4.17774 10.99207,14.22827 12.18186,-4.75882 5.69335,-4.17774 z m -19.28906,2.09766 c -2.55441,0.0703 -6.98973,2.90209 -13.82226,10.83203 12.22383,13.59924 21.48551,-11.04286 13.82226,-10.83203 z m -237.5664,11.88476 c -8.55912,-0.6938 -21.26035,5.12746 -33.97657,10.50196 -47.04933,13.88888 32.19221,20.85278 26.64844,51.97265 13.24653,-3.96351 14.26424,-22.545 16.44336,-33.88086 3.85948,-20.68932 -0.55612,-27.89994 -9.11523,-28.59375 z m 299.80078,4.2168 c -1.27295,-0.0274 -3.21528,1.91117 -5.96094,7.31641 6.50741,17.96936 10.50719,-7.21869 5.96094,-7.31641 z m -450.05664,17.59766 c -4.37918,-0.3938 -5.5244,3.03413 1.91992,13.93945 1.8565,1.00682 3.71189,2.01458 5.56836,3.02148 36.00716,10.0198 3.70295,-15.95457 -7.48828,-16.96093 z m 310.4375,6.9414 c -2.75005,0.26087 -7.07119,4.0454 -13.33985,13.94727 12.95882,29.13959 23.16145,-14.87894 13.33985,-13.94727 z m 34.62109,4.91993 c -2.85284,-0.0579 -4.35373,2.58278 -2.12305,10.25976 31.40254,14.37464 10.68158,-10.08599 2.12305,-10.25976 z m 152.11523,9.32812 c -2.40772,-0.0834 -5.56106,2.00748 -9.3164,7.94531 17.00032,20.38813 17.91541,-7.64743 9.3164,-7.94531 z m -61.125,7.69141 c -1.46647,-0.0643 -3.52164,1.48475 -6.17968,5.88672 9.14466,15.14389 11.4171,-5.65728 6.17968,-5.88672 z m -184.92187,2.17578 c -2.98101,-0.0722 -6.80977,2.59491 -10.93164,10.3789 21.19837,14.70477 19.87468,-10.16216 10.93164,-10.3789 z m -171.74805,1.48633 c -4.27281,0.084 -7.55253,3.3743 -4.16015,12.97656 24.09663,-1.6103 12.31734,-13.13687 4.16015,-12.97656 z m 332.89649,16.70898 c -1.58937,-0.18785 -2.52217,1.43794 -1.82813,6.30664 21.57545,18.168689 7.50445,-5.63573 1.82813,-6.30664 z m -346.66016,5.50391 c -3.79314,-0.43023 -7.04141,3.60668 -6.94531,16.562497 29.8933,14.815104 16.63889,-15.463027 6.94531,-16.562497 z m 48.8125,10.478512 c -1.66431,0.148696 -3.96961,2.12166 -7.00391,7.072266 9.41672,25.90197 14.21593,-7.716614 7.00391,-7.072266 z m 190.19727,0.929688 c -1.90947,0.32727 -4.44739,3.524767 -7.52735,11.673828 13.15027,22.613519 14.34687,-12.84265 7.52735,-11.673828 z m 80.5,11.03125 c -8.46827,-1.053314 -32.7927,27.328952 -33.10547,41.873047 -26.74053,18.212214 17.85873,28.247981 -2.76172,40.9121092 9.50236,10.2573223 26.13657,-3.1090778 30.63867,-12.4335942 -8.68378,-19.622678 -10.09815,-38.746362 7.73828,-61.59375 0.99059,-5.86013 -0.13865,-8.462884 -2.50976,-8.757812 z m -329.22852,9.496094 c -9.89678,-0.643197 11.97385,22.594709 -9.55273,29.171875 -21.48635,11.750494 15.75193,9.533609 23.83789,15.912109 3.19275,3.489765 12.2505,18.024384 16.49218,7.796875 -1.28454,-35.974771 13.81839,-7.889199 37.57813,-14.869141 43.30738,-29.115452 -36.58091,-23.93299 -55.50391,-33.253906 -6.59111,-3.19034 -10.56769,-4.609382 -12.85156,-4.757812 z m 204.48633,28.480468 c -1.27295,-0.02736 -3.21529,1.91311 -5.96094,7.31836 6.50745,17.969339 10.50719,-7.220661 5.96094,-7.31836 z m -292.74609,5.826172 c -1.22902,0.15737 -1.63437,2.566119 0.29687,9.242188 11.36264,4.65527 2.84394,-9.644353 -0.29687,-9.242188 z m 351.03906,3.195313 c -2.23107,0.162915 -4.25255,2.992757 -4.52344,10.892578 17.29383,5.69171 10.22506,-11.308916 4.52344,-10.892578 z m -132.01563,7.023437 c -16.72811,-0.651931 -29.23183,31.78588197 -16.21679,50.546875 -4.68654,15.468137 10.00995,7.197514 15.05078,1.53711 35.48424,30.015632 52.0448,-50.343343 15.74414,-42.726563 -4.87848,-6.397506 -9.89426,-9.174881 -14.57813,-9.357422 z m 64.45703,1.984375 c -1.46647,-0.06424 -3.52165,1.48475 -6.17968,5.886719 9.14465,15.1438929 11.4171,-5.657276 6.17968,-5.886719 z m -128.54492,9.927735 c -7.59429,0.0404 -13.83905,4.580576 -7.75586,17.1484372 l 6.14649,3.8105469 c 30.67306,-8.5938271 14.26653,-21.0263261 1.60937,-20.9589841 z m -33.42383,9.9023435 c -17.55552,1.1870302 -56.96038,29.5738785 -14.91601,33.2109375 7.55452,0.100157 11.94167,-7.719433 15.61133,-13.091797 10.75032,-15.578927 7.28447,-20.6586997 -0.69532,-20.1191405 z m 297.45704,6.7089844 c -14.08112,-0.8873639 -12.59838,31.6402481 15.24023,22.4902341 23.88287,26.414089 -32.83767,1.735144 -12.55273,21.259766 32.17917,18.033415 31.10286,-22.99484 9.41406,-36.8750001 -4.77469,-4.68658774 -8.85208,-6.6702237 -12.10156,-6.875 z M -506.14844,18.513672 c -2.16993,-0.08492 -5.09963,1.484346 -8.72656,5.984375 14.53025,15.715051 16.47634,-5.681094 8.72656,-5.984375 z m -37.01562,20.578125 c -16.71013,0.204255 -42.34079,21.230534 -34.76563,43.492187 16.29922,11.519003 35.88296,-4.851687 46.10938,-17.140625 5.4965,-19.100373 -1.31768,-26.474115 -11.34375,-26.351562 z m 432.39062,2.496094 c -2.30726,0.09689 -5.12442,1.885779 -8.1582,6.61914 18.13415,14.267442 16.39842,-6.965173 8.1582,-6.61914 z m -480.52148,6.388671 c -2.52275,0.321659 -5.77921,3.7913 -8.9336,13.171876 17.04116,5.751057 15.38061,-13.993892 8.9336,-13.171876 z m 146.36328,8.289063 c -1.40911,-0.168348 -3.39068,2.118225 -6.43555,8.335937 -18.06618,25.332926 -52.01033,46.974958 -46.46289,74.916018 -17.66404,3.30916 -31.72749,13.84269 -37.10742,35.46094 -7.24721,5.65836 25.36459,28.80114 21.24805,50.27734 11.9125,4.77618 33.28955,2.73244 33.86914,-13.8457 22.75336,-16.3065 0.53521,-40.56222 5.58398,-68.4668 18.75368,-10.04842 -11.33049,-41.20445 12.01172,-33.74024 23.12451,56.21377 100.77835,-32.908657 43.18945,-32.738276 -24.44197,27.343956 -19.79032,-19.469709 -25.89648,-20.199219 z m -207.59375,1.777344 c -1.87401,0.170322 -4.97983,2.68449 -9.3457,9.638672 10.87383,4.798925 14.13483,-10.07394 9.3457,-9.638672 z m 482.71094,0.86914 c -1.6434,-0.19251 -4.17704,2.443353 -7.65821,10.386719 l 0.0625,0.794922 c 9.45427,15.429611 12.5259,-10.604109 7.59571,-11.181641 z M -0.78320312,77.535156 c -6.08151468,0.05682 -17.65090288,4.954167 -24.67382788,14.533203 0.219151,14.748621 11.910504,6.11927 16.4238279,-0.02344 C 5.8928854,82.262811 5.2983116,77.478341 -0.78320312,77.535156 Z M 78.652344,83.587891 c -13.411922,-0.216135 -30.232455,7.164127 -29.25,26.005859 3.493372,8.48462 22.867182,-4.7229 30.84375,-1.625 24.429326,-14.134226 13.606428,-24.135906 -1.59375,-24.380859 z m -203.433594,5.916015 c -4.87366,0.04072 -10.3405,1.497917 -16.19336,4.894532 -5.82666,38.806912 -57.45748,39.580072 -84.26172,17.271482 -38.97427,-12.220216 11.5874,14.22477 13.83789,29.06641 l 1.39453,8.32617 c 28.92291,-18.38748 51.26434,-6.58251 78.90625,-18.39258 41.601613,-0.28423 32.634198,-41.385922 6.31641,-41.166014 z m -459.7832,23.943364 c -1.46648,-0.0643 -3.52166,1.48475 -6.17969,5.88671 9.14468,15.14389 11.4171,-5.65727 6.17969,-5.88671 z m 34.20117,0 c -17.16143,0.16163 -41.82147,31.67625 -45.12305,51.82812 12.61709,5.12453 42.69314,-32.03732 53.70313,-48.42187 -2.48043,-2.39186 -5.40204,-3.43619 -8.58008,-3.40625 z m 281.24414,4.18359 c -3.41762,-0.48739 -4.86091,2.22112 0.85937,11.3125 l 8.64258,2.97461 c 7.37226,-3.78887 -3.80593,-13.47479 -9.50195,-14.28711 z m -108.40039,8.99219 c -8.60855,-0.22424 -16.71875,3.40345 -18.80859,14.45312 5.7555,6.98495 16.13809,5.21636 24.01562,4.98438 35.07631,0.19806 13.73177,-18.94417 -5.20703,-19.4375 z m 97.0918,36.70703 c -4.09868,0.3197 -13.34541,8.24543 -15.85743,19.52539 -12.63026,16.45429 9.56539,0.97905 10.48633,-4.46485 8.6324,-10.95535 8.55895,-15.3092 5.3711,-15.06054 z m -229.9668,0.75781 c 2.16597,0.19194 7.41049,2.91627 17.30664,9.77734 21.73335,36.12492 -26.69251,-10.6091 -17.30664,-9.77734 z m 514.11328,3.1875 c -1.8129818,0.3024 -2.78177092,4.11202 -1.515625,14.10938 l 2.96875,5.54882 c 17.011281,10.0988 3.9858205,-20.56541 -1.453125,-19.6582 z m -27.314453,3.50391 c -3.423547,0.29745 -5.8119,3.6421 -4.962891,12.41797 l 4.267578,2.85742 c 30.5540703,10.37006 10.965954,-16.16774 0.695313,-15.27539 z m -236.115237,12.49414 c -7.84896,0.21225 -11.09353,4.21438 7.22266,13.37695 3.28439,0.5635 6.54201,1.30721 9.85547,1.69141 10.71839,-9.34837 -6.9866,-15.34126 -17.07813,-15.06836 z m -233.99804,9.56445 c 1.76919,-0.1842 4.17503,1.58228 7.28515,6.59961 -10.6696,31.63532 -14.95167,-5.80142 -7.28515,-6.59961 z m 445.093746,15.00391 c -1.114839,0.1185 -3.105085,1.83563 -6.302735,6.32812 3.111552,13.21887 10.284303,-6.75135 6.302735,-6.32812 z m -368.328126,5.42187 c -1.75243,0.19993 -4.05566,1.69741 -6.92773,5.29297 11.76052,17.3343 14.52161,-6.15931 6.92773,-5.29297 z m 34.98047,21.99414 c -1.51527,-0.11192 -3.83929,0.56027 -7.20508,2.54492 5.12611,13.14163 13.77127,-2.05993 7.20508,-2.54492 z m 57.2832,9.52149 c -1.26639,-0.18346 -3.00217,0.40626 -5.26367,2.30468 7.43575,13.79887 10.75137,-1.50972 5.26367,-2.30468 z m -91.0664,2.97265 c -33.12862,20.95677 12.69792,45.90382 35.04101,36.67188 35.91436,-12.6939 9.08546,18.80006 10.17774,31.84765 3.25087,4.3207 9.22865,7.69124 14.63672,5.29883 46.69306,-59.27259 -60.80277,-33.24582 -59.85547,-73.81836 z m -78.77344,21.82422 c -3.37156,0.22927 -6.74697,3.31004 -8.68555,11.58594 28.87756,12.69561 18.80023,-12.27375 8.68555,-11.58594 z m 175.03711,1.98242 c -1.25327,-0.0402 -3.12598,1.71218 -5.71875,6.62696 6.76711,16.52458 10.1947,-6.48351 5.71875,-6.62696 z m -214.08985,0.71094 c -1.59828,0.25751 -2.7113,2.95025 -2.71289,9.12891 a 428.23678,428.23678 0 0 0 8.8711,7.63476 c 5.99636,-0.92594 -1.68404,-17.48453 -6.15821,-16.76367 z m 224.53321,30.99609 c -10.12022,-0.28839 -40.94325,12.00406 -28.01758,29.45118 l 7.24023,2.3789 7.79102,1.65625 c 35.60954,5.65244 -19.51,-17.14266 7.90234,-24.59765 10.00751,-6.02763 9.68409,-8.75759 5.08399,-8.88868 z m -192.06836,2.75196 c -1.16087,-0.0634 -2.28099,0.0222 -3.35547,0.21484 a 428.23678,428.23678 0 0 0 23.25,15.15039 c 1.31244,-6.22532 -10.30865,-14.84169 -19.89453,-15.36523 z m 51.17578,3.35156 c -5.66046,0.19381 -17.07537,6.98685 -24.75977,16.11133 a 428.23678,428.23678 0 0 0 14.55274,7.91797 c 0.73798,-1.06212 1.35755,-1.87635 1.75976,-2.21094 13.99481,-16.01749 13.92787,-22.00601 8.44727,-21.81836 z"
         transform="scale(0.26458333)" />
      <path
         id="path10558"
         style="fill:#71a7d7;stroke-width:4.74183"
         d="m -341.39648,-461.6875 c -2.36086,-0.0568 -6.32452,3.97232 -12.25586,15.61523 11.98777,21.50224 19.33842,-15.44492 12.25586,-15.61523 z m -44.70508,24.12695 c -55.6944,-0.1765 30.92276,32.19052 0.98828,53.73243 l -4.9336,7.04492 c 32.42274,-9.78684 31.9301,-47.28409 3.94532,-60.77735 z m -55.43946,6.66407 a 428.23678,428.23678 0 0 0 -44.97851,24.94336 c 20.84932,0.41045 33.96257,-10.73518 44.97851,-24.94336 z m -52.21289,62.41796 c -0.84494,0.0518 -2.90166,2.40395 -6.83789,8.78125 -2.57758,20.17935 9.85556,-8.96624 6.83789,-8.78125 z m 44.07032,15.79102 c -18.78525,0.70746 -19.19345,34.25547 -43.60743,19.68555 -31.36928,-18.1184 -19.78155,13.51568 2.41407,17.28125 37.29675,36.21298 -62.45773,57.31148 -29.52149,78.17578 3.1245,20.13677 26.15689,36.93532 54.73828,33.83789 34.19139,6.03058 16.19649,32.18133 -5.93945,39.16211 -2.2571,18.37203 -11.15883,68.649824 -26.08203,24.63086 -32.76488,-20.88328 -64.69399,-60.53949 -108.34375,-59.71485 -42.73134,12.27594 23.32497,73.96021 -24.43359,50.08203 -14.69606,-18.14253 -29.02178,-19.09476 -39.56446,-11.23437 a 428.23678,428.23678 0 0 0 -13.02929,64.585938 c 2.08996,25.961402 -6.94237,60.217957 9.15625,68.128906 25.0625,0.03715 104.31361,27.58534401 80.74414,-16.519532 -17.21798,-62.430922 56.81806,-0.497783 77.33398,-25.099609 -11.77319,-19.331781 -4.81624,-37.238423 10.39258,-11.136719 12.51065,10.275353 76.71065,21.365904 66.33789,46.632813 41.58633,1.917605 8.49762,63.276033 54.81641,47.328125 4.76405,-8.6971137 27.01573,-26.340647 50.07421,-27.044922 6.82266,20.1146033 47.10107,48.1345 82.25782,53.453125 l 5.46093,3.644531 c -12.51734,-16.164938 21.36268,-20.588383 9.6836,-7.988281 31.20698,-5.25774 -18.54082,-56.260425 10.9414,-75.617187 -5.24004,1.377562 -38.1967,-10.219289 -34.7871,4.728515 34.18253,22.307452 -34.69886,58.648361 -15.09376,20.9375 -32.81427,-10.231412 41.04991,-72.452782 -18.82031,-73.644531 -6.76847,-28.025592 51.80753,-9.283328 56.19531,-17.935542 14.66845,0.0911 65.13155,-6.90759 38.31641,-22.58008 -10.23567,-15.5236 7.22603,-18.27224 26.24609,-17.20899 7.54344,-34.32092 -47.63927,-29.57468 -67.78124,-22.05469 -19.02083,-42.738 -63.46973,2.08748 -100.45704,-11.15624 -19.78266,13.26644 -41.79107,0.94782 -15.93359,-19.13282 8.41827,-1.40064 -8.10155,-56.39697 24.53906,-38.92773 15.02723,-31.02053 56.30118,12.91003 20.45899,19.79687 1.97513,37.7623 20.71061,-2.43029 24.89648,-21.95117 -1.17147,-30.89493 50.06379,-5.62028 35.94922,-22.33984 -24.98001,-39.36675 -44.1292,5.95779 -78.625,6.00976 -35.17251,7.57988 -44.95317,54.80661 -84.34961,56.38672 -51.07396,15.32497 -4.33192,-34.44816 -3.3418,-56.34961 -27.85852,1.66566 -15.47829,-26.17586 5.93946,-29.5664 61.68493,-15.15259 17.78717,-63.27771 -24.58594,-63.78516 -5.00832,-2.63558 -9.11695,-3.63101 -12.5957,-3.5 z m 2.89648,24.05078 c 2.16037,-0.19509 4.75876,0.75714 7.78125,3.46875 l -0.70117,1.50195 -1.04297,2.22852 c -16.55972,28.36804 -17.70311,-6.1457 -6.03711,-7.19922 z m 100.56055,5.24805 c -9.11627,-1.11428 -28.56078,10.78169 -18.11524,29.49219 1.28891,17.24051 11.67009,-22.03055 20.36719,-19.32618 3.90038,-6.4644 1.8918,-9.65952 -2.25195,-10.16601 z m -245.04883,10.31055 a 428.23678,428.23678 0 0 0 -25.59961,35.45898 c 4.4328,12.84157 4.20132,29.71034 11.35742,42.73242 4.82139,10.6565 21.20649,9.15807 27.25781,0.76172 -18.13455,-13.44808 -29.74147,-35.80914 -16.16601,-61.9082 2.73704,-6.73613 3.59628,-12.37324 3.15039,-17.04492 z m 274.24023,7.28515 c -0.303,0.2856 0.56065,1.78032 3.40821,5.21289 21.14521,15.02537 -2.09519,-6.4505 -3.40821,-5.21289 z m -227.76172,25.16602 c -9.63059,0.47166 -23.64999,7.45725 -21.45312,21.20117 4.36989,8.14998 13.47198,2.5303 16.57422,-3.32227 19.75168,-12.30908 14.5095,-18.35057 4.8789,-17.8789 z m 161.78321,28.81054 c -7.38464,0.20695 -18.38599,5.46485 -18.05664,15.43946 2.82595,4.8176 12.9653,6.58225 14.41211,-0.57227 14.79727,-10.22958 11.02917,-15.07414 3.64453,-14.86719 z m -149.73047,20.54688 c -1.24293,-0.0292 -2.50385,2.42886 -3.26563,9.51953 10.56096,13.04341 6.99443,-9.43197 3.26563,-9.51953 z m 194.52539,11.31641 c -1.35545,-0.1782 -2.6836,1.75555 -3.37695,7.6875 11.76431,12.38818 7.44331,-7.15291 3.37695,-7.6875 z m -301.67578,3.86914 c -2.07977,-0.0915 -4.68591,0.84419 -7.75195,3.49023 15.91461,16.59335 16.76426,-3.09368 7.75195,-3.49023 z m 579.458983,1.10156 c -2.426335,0.14131 -5.586965,2.75738 -8.707031,10.08203 16.313806,5.35382 14.907666,-10.44317 8.707031,-10.08203 z m -7.269531,15.46875 c -1.466476,-0.0643 -3.521653,1.48475 -6.179688,5.88672 9.144653,15.14388 11.4171,-5.65728 6.179688,-5.88672 z m -352.478512,7.66211 c 1.90625,0.13929 6.47608,2.24827 15.0625,7.57617 18.42369,28.20932 -23.32296,-8.17978 -15.0625,-7.57617 z m 292.55468,1.88672 c -11.09977,1.08831 -20.00679,36.34057 9.50196,33.52734 14.99794,-3.43908 39.18836,-1.02242 60.972653,5.70508 14.127855,3.23663 28.435565,-24.0431 5.138672,-25.85156 -25.342466,-21.27719 -51.969895,26.12289 -65.124995,-0.40625 -2.84557,-9.90404 -6.78836,-13.33739 -10.48829,-12.97461 z m 165.250004,0.17187 c -5.166482,0.22951 -6.640677,2.83785 3.484375,9.98828 37.115162,0.51508 7.881885,-10.4932 -3.484375,-9.98828 z m -680.662114,8.47461 c -6.85776,-0.42156 -12.48157,2.66963 -1.04882,12.40039 20.72362,-5.50959 9.86595,-11.85838 1.04882,-12.40039 z m 655.271489,8.26758 c -10.5256374,-0.007 -26.461499,6.31968 -29.212891,18.7207 8.3017026,2.65812 17.64426686,3.90711 25.9687501,0.5625 18.8862009,-12.93528 13.7697779,-19.27621 3.2441409,-19.2832 z m -293.880859,13.93164 c 4.60588,0.0241 9.12033,4.43165 9.92773,17.07422 3.89549,1.34142 1.62978,8.06118 -3.11718,5.38086 -27.5153,-1.34819 -16.9435,-22.50821 -6.81055,-22.45508 z m -296.30664,2.2832 c 1.46648,-0.0642 3.52165,1.4828 6.17969,5.88477 -9.14469,15.14388 -11.41712,-5.65533 -6.17969,-5.88477 z m 250.96875,5.11328 c 2.45554,-0.2157 5.90618,2.12293 10.3789,9.01563 -15.24057,25.11119 -19.1487,-8.24526 -10.3789,-9.01563 z m 75.18164,1.29883 c 1.55823,0.0865 3.59765,1.50478 6.12891,5.10352 -10.58603,19.17576 -12.88123,-5.47841 -6.12891,-5.10352 z m -127.66016,19.97656 c 2.13037,-0.22319 4.172,2.73009 5.46094,11.23047 l -0.64062,2.35352 -0.64649,2.37305 c -20.50814,26.153417 -11.78228,-15.15993 -4.17383,-15.95704 z m -171.96484,0.36133 c 1.88361,-0.19627 4.54045,1.11091 8.10547,4.93555 -9.90935,25.01321 -16.26777,-4.08505 -8.10547,-4.93555 z m 106.51367,18.47071 c 38.74618,0.49829 89.56319,29.28526 42.66211,60.511714 -2.74345,5.491968 -9.17595,8.487314 -15.21484,7.841797 9.99156,-12.86454 -11.17757,-27.141356 -30.00782,-34.082031 -30.81664,-1.040047 -51.00125,-50.26326 -8.21484,-23.96094 23.79005,22.983967 18.40197,-0.62189 -4.77148,-8.71679 4.72239,-1.15882 10.0117,-1.66494 15.54687,-1.59375 z m -118.87891,3.09179 c 2.80123,0.19275 6.27247,3.76485 10.09766,13.220706 -21.55349,28.511955 -20.10204,-13.909086 -10.09766,-13.220706 z m 519.736333,5.25 c -1.589364,-0.18785 -2.520239,1.43794 -1.826172,6.306643 21.575436,18.168667 7.502474,-5.635733 1.826172,-6.306643 z m 31.173828,5.738284 c -1.439872,-0.02469 -3.309639,1.738703 -5.507812,6.648437 10.3219217,16.320127 10.650213,-6.560255 5.507812,-6.648437 z m -226.828121,2.607422 c -1.03888,-0.06697 -1.99546,1.410617 -2.50391,5.621093 10.96325,14.552147 6.21417,-5.381926 2.50391,-5.621093 z m -87.74805,1.064453 c 1.63366,-0.338864 3.73228,1.621391 6.16601,7.720703 -11.90785,24.018838 -12.00052,-6.510474 -6.16601,-7.720703 z m 86.83789,19.357422 c -3.2302,-0.231353 -1.82997,3.822332 10.25977,16.021484 l 4.15039,5.259766 c 32.3466,7.884037 -6.15521,-20.690016 -14.41016,-21.28125 z m -116.35547,2.644531 c 2.69412,-0.03699 4.00318,3.462714 1.69531,13.34375 l -3.04296,5.652344 c -27.28014,13.053329 -6.7347,-18.88512 1.34765,-18.996094 z m -124.60547,21.93164 c -0.89102,-0.02358 -1.78877,0.07641 -2.68359,0.31836 -29.71691,9.887834 -16.22999,11.342785 3.66601,14.560547 24.17436,13.404211 12.38295,-14.525241 -0.98242,-14.878907 z m -55.4375,1.712891 c -1.11483,0.118498 -3.10513,1.835683 -6.30273,6.328125 3.11164,13.218788 10.28428,-6.751333 6.30273,-6.328125 z m 163.1836,1.380859 c 1.27295,-0.02736 3.21528,1.91311 5.96093,7.31836 -6.50745,17.969338 -10.50719,-7.220661 -5.96093,-7.31836 z m -285.16602,6.232422 c 10.87143,19.995121 -18.8465,1.444192 0,0 z m 346.06055,4.81836 c 1.45505,-0.06559 3.27718,0.112117 5.52539,0.613281 0.5615,23.518504 -19.59087,0.02072 -5.52539,-0.613281 z m -70.59571,6.978515 c 1.46648,-0.06424 3.52165,1.482795 6.17969,5.884766 -9.14465,15.1438993 -11.4171,-5.655323 -6.17969,-5.884766 z m -144.69726,22.8671879 c -7.8314,-0.5335887 -15.82532,5.05461046 -17.95117,21.9648441 -25.35311,8.207025 -83.13446,3.000512 -120.42188,15.570312 -5.61655,1.862411 -9.45591,3.501461 -11.97461,4.986328 a 428.23678,428.23678 0 0 0 1.75196,9.261719 c 10.69943,5.111066 32.29985,9.934911 23.00781,21.246094 -5.11096,4.852732 -9.57296,10.126171 -13.50391,15.685547 a 428.23678,428.23678 0 0 0 44.56641,97.566409 c 23.09302,-1.73035 47.86309,11.50783 21.17773,29.62304 -0.2827,0.0138 -0.67526,0.14532 -1.01367,0.21875 a 428.23678,428.23678 0 0 0 18.58008,23.42188 c 7.11221,-4.00715 15.30521,-5.0585 25.38672,-0.0879 22.20404,-16.47646 31.48285,41.28377 44.66992,10.60156 6.04173,-13.80926 0.65543,-46.79231 -22.41016,-61.7168 1.09917,-3.88577 8.35232,-44.16831 32.69532,-35.30664 -2.44642,-36.11599 39.44236,-49.605605 42.72851,-83.261716 -27.18436,-34.857667 -69.96374,-0.990172 -96.71875,20.222657 -43.43879,0.282757 2.1975,-59.639465 30.58399,-56.144532 28.15956,-9.496628 13.79656,-32.8328929 -1.1543,-33.8515621 z M -239.72656,-5 c 4.37111,0.1300333 6.9956,5.44960026 3.5957,20.748047 C -273.48195,28.227809 -250.89719,-5.3323072 -239.72656,-5 Z m -233.44532,0.2109375 c -5.50582,-0.7455998 -18.17356,6.0216818 -22.73632,18.3183595 4.99963,2.707878 11.0215,0.936241 15.40625,-2.009766 11.56273,-10.60366501 11.61239,-15.7286825 7.33007,-16.3085935 z m 165.5,4.43359375 c 1.46648,-0.0642431 3.52166,1.48279535 6.17969,5.88476565 -9.14467,15.1438861 -11.4171,-5.6553262 -6.17969,-5.88476565 z M 139.26172,21.900391 c -1.44975,0.412033 -4.09466,4.162188 -8.41016,13.658203 3.53326,25.978668 13.58784,-15.12975 8.41016,-13.658203 z M 92.691406,33.955078 c -9.722147,0.329023 -17.629884,15.186253 -3.033203,25.240234 40.094997,-11.097894 3.1936,11.908743 4.050781,29.273438 10.380756,20.63429 28.632866,12.15282 32.298826,-6.929688 36.60182,13.083092 0.31753,-44.12088 -22.31054,-40.138671 -3.12012,-5.478011 -7.201545,-7.574061 -11.005864,-7.445313 z m -488.275386,1.197266 c -3.29825,0.307893 -7.51212,4.041172 -12.01368,14.003906 23.56032,14.977145 21.9084,-14.927586 12.01368,-14.003906 z m 197.70312,1.68164 c -6.55194,0.344664 -12.99921,6.586803 -11.55078,22.576172 -0.12332,3.090637 4.79953,11.695892 9.10352,7.019532 24.57553,-14.363561 13.36716,-30.170143 2.44726,-29.595704 z m -392.01562,15.271485 c 1.15439,0.01273 2.44882,0.142447 3.89453,0.412109 -7.04148,25.513544 -21.21048,-0.603002 -3.89453,-0.412109 z m 642.792964,1.927734 c -0.635133,-0.0069 -0.605117,1.318385 0.644532,4.841797 17.352945,20.246905 2.107715,-4.811962 -0.644532,-4.841797 z m -673.841794,4.960938 c 4.9615,-0.15074 5.95881,3.222716 -2.99219,12.921875 -4.18772,3.591681 -8.20227,7.418252 -12.81836,10.476562 -35.43465,0.382491 3.13115,-23.013214 15.81055,-23.398437 z m 455.00586,11.291015 c -2.11948,0.180498 -4.85205,3.239823 -7.52344,11.695313 l 0.47656,1.263672 c 13.87224,4.913729 12.46332,-13.420258 7.04688,-12.958985 z m 54.95898,16.03711 c -3.1917,-0.204296 -8.34096,0.597731 -15.75976,3.359375 17.28652,6.932199 25.33488,-2.746487 15.75976,-3.359375 z m -288.91992,1.248046 c -2.2815,0.138994 -4.17605,3.459602 -3.41992,12.992188 15.33221,1.79303 8.43922,-13.297974 3.41992,-12.992188 z m 451.064452,9.078126 c -1.949618,0.185511 -4.465804,2.508872 -6.501953,8.927732 12.338243,0.59832 10.791115,-9.335857 6.501953,-8.927732 z m -519.457032,5.888672 c -2.05246,0.0897 -3.37404,3.32227 -2.80469,12.05469 26.79511,27.404 10.1349,-12.37488 2.80469,-12.05469 z m 302.36133,8.48437 c -3.07191,-0.0521 -6.7372,2.1227 -9.69727,8.64454 21.52823,6.16561 17.54769,-8.51128 9.69727,-8.64454 z m -381.54492,1.24024 c 18.09406,-1.22768 -19.61344,36.00351 -30.00782,44.99414 -32.52377,40.10814 -4.12488,-41.40539 18.59571,-41.91992 5.10478,-1.93963 8.82724,-2.89884 11.41211,-3.07422 z m -39.96289,1.18555 c 1.46648,-0.0643 3.52165,1.48474 6.17968,5.88671 -9.14468,15.14389 -11.41711,-5.65728 -6.17968,-5.88671 z m 238.47265,9.1582 c -1.8282,0.22341 -4.04397,2.57054 -6.40039,8.58398 14.52378,16.90703 12.92968,-9.38188 6.40039,-8.58398 z m 366.052738,0.28515 c -5.105509,-0.29642 -11.3928509,4.28765 -15.101563,18.1211 l 1.2460938,4.74805 4.0117187,1.77929 C 32.27233,141.80826 26.832818,123.45652 17.085938,122.89062 Z m -304.972658,15.58399 c -15.51726,0.80909 -46.36609,27.38688 -24.27539,43.97656 13.74578,9.52428 24.63276,-6.89707 26.22852,-18.89844 10.0974,-18.85609 6.17496,-25.50193 -1.95313,-25.07812 z m 357.640626,1.14844 c -2.014248,-0.31163 -4.298615,2.85794 -6.125,12.35937 l 2.177735,6.72656 1.96875,3.98438 c 10.511441,1.26399 7.126039,-22.27393 1.978515,-23.07031 z M -555.89844,154.9375 c 10.37639,0.49867 14.22603,12.73846 -3.08594,29.14648 -6.65797,15.49787 -23.82931,-6.49016 -19.47851,-15.72656 7.76373,-9.79144 16.33862,-13.71912 22.56445,-13.41992 z m 580.189456,9.43945 c -4.422345,0.143 -6.021688,3.14856 0.216796,11.47852 1.783083,0.83584 3.568011,1.67514 5.351563,2.51172 35.477007,3.98421 5.733187,-14.35568 -5.568359,-13.99024 z m -365.050786,7.08399 c -0.93013,-0.10232 -2.728,1.14018 -5.77929,4.77539 1.34496,13.1046 9.10121,-4.40997 5.77929,-4.77539 z m -67.50781,4.48437 c -14.75091,0.52457 -36.69447,11.64205 -36.43164,32.98047 -24.43415,26.37645 19.24712,21.69638 36.46094,26.98047 22.9539,8.5764 -1.52486,-27.28955 2.02344,-36.35156 18.3789,-16.28769 10.96277,-24.07223 -2.05274,-23.60938 z m -65.79883,23.14844 c -1.68626,0.0536 -4.18514,1.55729 -7.61523,5.59375 9.2959,12.51983 13.6376,-5.78507 7.61523,-5.59375 z m 55.67383,14.16992 c 1.75243,0.19993 4.05761,1.6974 6.92969,5.29297 -11.76053,17.33434 -14.52356,-6.15931 -6.92969,-5.29297 z m -139.23437,31.02735 c -2.32332,0.11491 -5.24635,2.60481 -8.65625,8.96289 a 428.23678,428.23678 0 0 0 12.18359,12.18359 c 4.63809,-4.56694 2.73714,-21.45633 -3.52734,-21.14648 z m 60.41406,10.0371 c -12.43197,0.65021 -30.86212,7.17408 -29.26758,22.79688 10.69795,19.91432 16.63699,-2.11393 22.54492,-10.35156 25.58809,-7.87217 19.15463,-13.09552 6.72266,-12.44532 z m 249.33789,31.86524 c -17.19171,0.29915 -36.88171,11.52331 -13.00391,29.55664 4.40443,7.69356 22.43994,11.28681 21.03125,-2 20.36664,-19.57805 7.14182,-27.8206 -8.02734,-27.55664 z m 218.240234,23.29687 c -11.256935,-0.29368 -21.837625,4.04218 -13.53125,16.78516 a 428.23678,428.23678 0 0 0 24.064454,-15.11914 c -3.168812,-0.94546 -6.849667,-1.56992 -10.533204,-1.66602 z"
         transform="scale(0.26458333)" />
    </g>
    <path
       id="path19048"
       style="opacity:1;fill:#ffffff;fill-opacity:1;stroke:none;stroke-width:0.127397"
       d="m 104.63873,27.72105 c -38.99457,1.1e-5 -70.605911,31.611353 -70.60592,70.605923 1.6e-5,38.994567 31.611355,70.605897 70.60592,70.605907 38.99457,-1e-5 70.60591,-31.61134 70.60592,-70.605907 -1e-5,-38.994571 -31.61135,-70.605915 -70.60592,-70.605923 z m 2.54419,13.135709 c 19.10552,0.09203 30.91596,22.150947 35.61972,39.43792 C 132.69513,63.390525 120.076,55.879704 105.20434,56.251052 89.575207,56.641321 74.59598,68.394726 67.001581,83.460132 71.809092,61.439206 86.623557,41.491139 106.26766,40.86936 c 0.30694,-0.0097 0.612,-0.01407 0.91526,-0.0126 z m -1.57923,19.60661 c 17.04518,0.08359 40.4786,10.937832 40.44595,57.718361 -9.1e-4,10.64927 -9.09929,6.24572 -20.32342,12.5337 13.72855,-13.6101 18.80367,-7.16799 4.99528,-45.497567 C 120.63915,64.005453 86.787628,64.698246 79.163226,87.447745 65.912223,120.52356 73.64188,119.09777 84.564161,130.56037 73.728852,121.84462 63.549024,128.83458 63.573278,116.29205 63.650743,76.260035 88.558557,60.3798 105.60369,60.463369 Z M 58.794303,124.26588 c 32.015557,17.37496 68.859257,14.85582 93.119337,0.26145 -18.97437,21.86698 -56.411101,27.10265 -98.039715,10.27546 z m 92.710497,8.05811 6.72784,6.76183 c -45.80852,26.53234 -72.374452,18.11406 -107.188161,-1.94673 49.548821,15.48525 73.841701,15.67046 100.460321,-4.8151 z"
       sodipodi:nodetypes="scsssccscscsccccccscccccccc" />
  </g>
</svg>
